<svg width="20" height="20" viewBox="0 0 20 20" fill="none" xmlns="http://www.w3.org/2000/svg">
<path d="M9.87755 2.52425L16.9576 5.35626C17.233 5.4664 17.4532 5.7968 17.4532 6.08787V8.69963C17.4532 9.13231 17.0992 9.48631 16.6666 9.48631H2.5064C2.07373 9.48631 1.71973 9.13231 1.71973 8.69963V6.08787C1.71973 5.7968 1.94 5.4664 2.21534 5.35626L9.29542 2.52425C9.45275 2.46132 9.72021 2.46132 9.87755 2.52425Z" stroke="#080808" stroke-width="1.18001" stroke-miterlimit="10" stroke-linecap="round" stroke-linejoin="round"/>
<path d="M17.4532 18.1399H1.71973V15.7798C1.71973 15.3472 2.07373 14.9932 2.5064 14.9932H16.6666C17.0992 14.9932 17.4532 15.3472 17.4532 15.7798V18.1399Z" stroke="#080808" stroke-width="1.18001" stroke-miterlimit="10" stroke-linecap="round" stroke-linejoin="round"/>
<path d="M3.29297 14.9931V9.48633" stroke="#080808" stroke-width="1.18001" stroke-miterlimit="10" stroke-linecap="round" stroke-linejoin="round"/>
<path d="M6.43945 14.9931V9.48633" stroke="#080808" stroke-width="1.18001" stroke-miterlimit="10" stroke-linecap="round" stroke-linejoin="round"/>
<path d="M9.58691 14.9931V9.48633" stroke="#080808" stroke-width="1.18001" stroke-miterlimit="10" stroke-linecap="round" stroke-linejoin="round"/>
<path d="M12.7334 14.9931V9.48633" stroke="#080808" stroke-width="1.18001" stroke-miterlimit="10" stroke-linecap="round" stroke-linejoin="round"/>
<path d="M15.8799 14.9931V9.48633" stroke="#080808" stroke-width="1.18001" stroke-miterlimit="10" stroke-linecap="round" stroke-linejoin="round"/>
<path d="M0.933594 18.1396H18.2405" stroke="#080808" stroke-width="1.18001" stroke-miterlimit="10" stroke-linecap="round" stroke-linejoin="round"/>
<path d="M9.58626 7.51969C10.238 7.51969 10.7663 6.99138 10.7663 6.33968C10.7663 5.68798 10.238 5.15967 9.58626 5.15967C8.93456 5.15967 8.40625 5.68798 8.40625 6.33968C8.40625 6.99138 8.93456 7.51969 9.58626 7.51969Z" stroke="#080808" stroke-width="1.18001" stroke-miterlimit="10" stroke-linecap="round" stroke-linejoin="round"/>
</svg>
