<svg width="16" height="16" viewBox="0 0 16 16" fill="none" xmlns="http://www.w3.org/2000/svg">
<path d="M8.33372 14.6666H2.72039C1.94705 14.6666 1.31372 14.0466 1.31372 13.2866V3.39324C1.31372 1.64657 2.61372 0.853241 4.20705 1.63324L7.16705 3.08657C7.80705 3.39991 8.33372 4.23324 8.33372 4.93991V14.6666Z" stroke="#080808" stroke-linecap="round" stroke-linejoin="round"/>
<path d="M14.6466 10.0406V12.5606C14.6466 14.0006 13.9799 14.6673 12.5399 14.6673H8.33325V6.94727L8.64659 7.01393L11.6466 7.68727L12.9999 7.98727C13.8799 8.1806 14.5999 8.63393 14.6399 9.91393C14.6466 9.95393 14.6466 9.99393 14.6466 10.0406Z" stroke="#080808" stroke-linecap="round" stroke-linejoin="round"/>
<path d="M3.66675 6H5.98008" stroke="#080808" stroke-linecap="round" stroke-linejoin="round"/>
<path d="M3.66675 8.66699H5.98008" stroke="#080808" stroke-linecap="round" stroke-linejoin="round"/>
<path d="M11.6472 7.687V9.83367C11.6472 10.6603 10.9739 11.3337 10.1472 11.3337C9.32055 11.3337 8.64722 10.6603 8.64722 9.83367V7.01367L11.6472 7.687Z" stroke="#080808" stroke-linecap="round" stroke-linejoin="round"/>
<path d="M14.6405 9.91319C14.6005 10.6999 13.9472 11.3332 13.1472 11.3332C12.3206 11.3332 11.6472 10.6599 11.6472 9.83319V7.68652L13.0006 7.98652C13.8806 8.17986 14.6005 8.63319 14.6405 9.91319Z" stroke="#080808" stroke-linecap="round" stroke-linejoin="round"/>
</svg>
