<svg width="24" height="24" viewBox="0 0 24 24" fill="none" xmlns="http://www.w3.org/2000/svg">
<path d="M5.00073 13.0007V3.5005C5.00073 3.36789 5.05341 3.24071 5.14718 3.14694C5.24095 3.05317 5.36813 3.00049 5.50074 3.00049H22.5011C22.6337 3.00049 22.7609 3.05317 22.8546 3.14694C22.9484 3.24071 23.0011 3.36789 23.0011 3.5005V12.5007C23.0011 12.6333 22.9484 12.7605 22.8546 12.8542C22.7609 12.948 22.6337 13.0007 22.5011 13.0007H5.00073Z" fill="#EB7B7B"/>
<path d="M5.50074 3.00049C5.36813 3.00049 5.24095 3.05317 5.14718 3.14694C5.05341 3.24071 5.00073 3.36789 5.00073 3.5005V13.0007H9.89283L19.893 3.00049H5.50074Z" fill="#FF9F9F"/>
<path d="M23.001 6.50056L19.501 3.00049" stroke="#3E0000" stroke-width="1.00002" stroke-linecap="round" stroke-linejoin="round"/>
<path d="M5.00073 6.50056L8.5008 3.00049" stroke="#3E0000" stroke-width="1.00002" stroke-linecap="round" stroke-linejoin="round"/>
<path d="M23.001 9.50049L19.501 13.0006" stroke="#3E0000" stroke-width="1.00002" stroke-linecap="round" stroke-linejoin="round"/>
<path d="M15.001 10.0005V11.0005" stroke="#3E0000" stroke-width="1.00002" stroke-linecap="round" stroke-linejoin="round"/>
<path d="M15.001 5.00049V6.00051" stroke="#3E0000" stroke-width="1.00002" stroke-linecap="round" stroke-linejoin="round"/>
<path d="M13.001 10.0006H16.001C16.2663 10.0006 16.5206 9.89521 16.7082 9.70767C16.8957 9.52013 17.0011 9.26577 17.0011 9.00055C17.0011 8.73533 16.8957 8.48097 16.7082 8.29343C16.5206 8.10589 16.2663 8.00053 16.001 8.00053H14.001C13.7358 8.00053 13.4814 7.89517 13.2939 7.70763C13.1063 7.52009 13.001 7.26573 13.001 7.00051C13.001 6.73529 13.1063 6.48093 13.2939 6.29339C13.4814 6.10585 13.7358 6.00049 14.001 6.00049H17.0011" stroke="#3E0000" stroke-width="1.00002" stroke-linecap="round" stroke-linejoin="round"/>
<path d="M7.16486 13.0002L7.50086 11.0002L10.5819 8.80011C10.7115 8.70759 10.8172 8.58545 10.8901 8.44387C10.9629 8.30228 11.0009 8.14533 11.0009 7.98609V7.42008C11.001 7.25985 10.9625 7.10195 10.8887 6.9597C10.815 6.81744 10.7081 6.69499 10.5772 6.60265C10.4462 6.51032 10.295 6.4508 10.1362 6.42912C9.97747 6.40744 9.81583 6.42422 9.66491 6.47806L5.56482 7.94509C4.5335 8.31228 3.5751 8.85868 2.73377 9.55912L1.00073 11.0002V21.0004L3.24478 19.5003C3.73856 19.1728 4.31827 18.9988 4.91081 19.0003H14.778C14.988 19.0004 15.1926 18.9343 15.363 18.8116C15.5333 18.6888 15.6607 18.5155 15.727 18.3163L17.5011 13.0002H7.16486Z" fill="#FF9F9F"/>
<path d="M4.00079 15.5002L6.27984 14.4812C6.50742 14.3294 6.70142 14.1325 6.84987 13.9027C6.99831 13.6729 7.09803 13.4151 7.14286 13.1452L7.50086 11.0002L10.5819 8.80011C10.7115 8.70759 10.8172 8.58545 10.8901 8.44387C10.9629 8.30228 11.0009 8.14533 11.0009 7.98609V7.42008C11.001 7.25985 10.9625 7.10195 10.8887 6.9597C10.815 6.81744 10.7081 6.69499 10.5772 6.60265C10.4462 6.51032 10.295 6.4508 10.1362 6.42912C9.97747 6.40744 9.81583 6.42422 9.66491 6.47806L5.56482 7.94509C4.5335 8.31228 3.5751 8.85868 2.73377 9.55912L1.00073 11.0002" stroke="#3E0000" stroke-width="1.00002" stroke-linecap="round" stroke-linejoin="round"/>
<path d="M1.00073 21.0006L3.24478 19.5006C3.73856 19.1731 4.31827 18.9991 4.91081 19.0006H14.778C14.988 19.0007 15.1926 18.9346 15.363 18.8118C15.5333 18.6891 15.6607 18.5158 15.727 18.3166L17.5011 13.0005" stroke="#3E0000" stroke-width="1.00002" stroke-linecap="round" stroke-linejoin="round"/>
<path d="M16.5011 16.0005H12.001" stroke="#3E0000" stroke-width="1.00002" stroke-linecap="round" stroke-linejoin="round"/>
<path d="M13.0008 16.0005C12.6029 16.0005 12.2214 15.8425 11.9401 15.5612C11.6588 15.2799 11.5007 14.8984 11.5007 14.5005C11.5007 14.1027 11.6588 13.7211 11.9401 13.4398C12.2214 13.1585 12.6029 13.0005 13.0008 13.0005" stroke="#3E0000" stroke-width="1.00002" stroke-linecap="round" stroke-linejoin="round"/>
<path d="M12.0008 19.0005C11.6029 19.0005 11.2214 18.8425 10.9401 18.5612C10.6588 18.2799 10.5007 17.8984 10.5007 17.5005C10.5007 17.1027 10.6588 16.7211 10.9401 16.4398C11.2214 16.1585 11.6029 16.0005 12.0008 16.0005" stroke="#3E0000" stroke-width="1.00002" stroke-linecap="round" stroke-linejoin="round"/>
<path d="M5.00073 6.50056V3.5005C5.00073 3.36789 5.05341 3.24071 5.14718 3.14694C5.24095 3.05317 5.36813 3.00049 5.50074 3.00049H22.5011C22.6337 3.00049 22.7609 3.05317 22.8546 3.14694C22.9484 3.24071 23.0011 3.36789 23.0011 3.5005V12.5007C23.0011 12.6333 22.9484 12.7605 22.8546 12.8542C22.7609 12.948 22.6337 13.0007 22.5011 13.0007H10.0008" stroke="#3E0000" stroke-width="1.00002" stroke-linecap="round" stroke-linejoin="round"/>
</svg>
