<svg width="23" height="16" viewBox="0 0 23 16" fill="none" xmlns="http://www.w3.org/2000/svg">
<rect x="1.39844" y="0.953125" width="20.3749" height="13.7668" rx="1.37668" stroke="#080808" stroke-width="1.65202"/>
<mask id="path-2-inside-1_40001635_51820" fill="white">
<path d="M11.5869 3.01855C13.4876 3.01872 15.0283 5.17589 15.0283 7.83691C15.0282 10.4978 13.4876 12.6551 11.5869 12.6553C9.68616 12.6553 8.14461 10.4979 8.14453 7.83691C8.14453 5.17579 9.68611 3.01855 11.5869 3.01855ZM11.4648 5.08301L9.65918 6.05664V6.08789L9.87598 6.76758H9.91406L11.1904 6.26172V9.65332H9.91406V10.5898H13.3818V9.65332H12.2119V5.08301H11.4648Z"/>
</mask>
<path d="M11.5869 3.01855C13.4876 3.01872 15.0283 5.17589 15.0283 7.83691C15.0282 10.4978 13.4876 12.6551 11.5869 12.6553C9.68616 12.6553 8.14461 10.4979 8.14453 7.83691C8.14453 5.17579 9.68611 3.01855 11.5869 3.01855ZM11.4648 5.08301L9.65918 6.05664V6.08789L9.87598 6.76758H9.91406L11.1904 6.26172V9.65332H9.91406V10.5898H13.3818V9.65332H12.2119V5.08301H11.4648Z" fill="#080808"/>
<path d="M11.5869 3.01855L11.5871 1.36654H11.5869V3.01855ZM15.0283 7.83691L16.6803 7.83697V7.83691H15.0283ZM11.5869 12.6553V14.3073H11.5871L11.5869 12.6553ZM8.14453 7.83691H6.49251V7.83697L8.14453 7.83691ZM11.4648 5.08301V3.43099H11.0478L10.6808 3.62891L11.4648 5.08301ZM9.65918 6.05664L8.87511 4.60254L8.00716 5.07055V6.05664H9.65918ZM9.65918 6.08789H8.00716V6.34498L8.08529 6.58991L9.65918 6.08789ZM9.87598 6.76758L8.30208 7.2696L8.66889 8.4196H9.87598V6.76758ZM9.91406 6.76758V8.4196H10.2295L10.5227 8.30338L9.91406 6.76758ZM11.1904 6.26172H12.8424V3.82994L10.5818 4.72592L11.1904 6.26172ZM11.1904 9.65332V11.3053H12.8424V9.65332H11.1904ZM9.91406 9.65332V8.0013H8.26204V9.65332H9.91406ZM9.91406 10.5898H8.26204V12.2419H9.91406V10.5898ZM13.3818 10.5898V12.2419H15.0339V10.5898H13.3818ZM13.3818 9.65332H15.0339V8.0013H13.3818V9.65332ZM12.2119 9.65332H10.5599V11.3053H12.2119V9.65332ZM12.2119 5.08301H13.8639V3.43099H12.2119V5.08301ZM11.5869 3.01855L11.5868 4.67057C11.8652 4.6706 12.273 4.8258 12.676 5.39008C13.0768 5.95118 13.3763 6.811 13.3763 7.83691H15.0283H16.6803C16.6803 6.20181 16.2095 4.65253 15.3647 3.46975C14.5222 2.29014 13.2094 1.36668 11.5871 1.36654L11.5869 3.01855ZM15.0283 7.83691L13.3763 7.83686C13.3763 8.86274 13.0768 9.72259 12.676 10.2837C12.2729 10.8481 11.8651 11.0032 11.5868 11.0033L11.5869 12.6553L11.5871 14.3073C13.2094 14.3072 14.5222 13.3836 15.3647 12.204C16.2094 11.0213 16.6803 9.47201 16.6803 7.83697L15.0283 7.83691ZM11.5869 12.6553V11.0033C11.3085 11.0033 10.9004 10.848 10.4972 10.2836C10.0962 9.72242 9.79658 8.8626 9.79655 7.83686L8.14453 7.83691L6.49251 7.83697C6.49256 9.47225 6.96375 11.0216 7.80879 12.2044C8.65152 13.3839 9.9646 14.3073 11.5869 14.3073V12.6553ZM8.14453 7.83691H9.79655C9.79655 6.81114 10.0962 5.95135 10.4971 5.39021C10.9003 4.82585 11.3084 4.67057 11.5869 4.67057V3.01855V1.36654C9.96462 1.36654 8.65151 2.28988 7.80875 3.46942C6.96368 4.65218 6.49251 6.20157 6.49251 7.83691H8.14453ZM11.4648 5.08301L10.6808 3.62891L8.87511 4.60254L9.65918 6.05664L10.4432 7.51074L12.2489 6.53711L11.4648 5.08301ZM9.65918 6.05664H8.00716V6.08789H9.65918H11.3112V6.05664H9.65918ZM9.65918 6.08789L8.08529 6.58991L8.30208 7.2696L9.87598 6.76758L11.4499 6.26556L11.2331 5.58587L9.65918 6.08789ZM9.87598 6.76758V8.4196H9.91406V6.76758V5.11556H9.87598V6.76758ZM9.91406 6.76758L10.5227 8.30338L11.7991 7.79752L11.1904 6.26172L10.5818 4.72592L9.30538 5.23178L9.91406 6.76758ZM11.1904 6.26172H9.53841V9.65332H11.1904H12.8424V6.26172H11.1904ZM11.1904 9.65332V8.0013H9.91406V9.65332V11.3053H11.1904V9.65332ZM9.91406 9.65332H8.26204V10.5898H9.91406H11.5661V9.65332H9.91406ZM9.91406 10.5898V12.2419H13.3818V10.5898V8.93783H9.91406V10.5898ZM13.3818 10.5898H15.0339V9.65332H13.3818H11.7298V10.5898H13.3818ZM13.3818 9.65332V8.0013H12.2119V9.65332V11.3053H13.3818V9.65332ZM12.2119 9.65332H13.8639V5.08301H12.2119H10.5599V9.65332H12.2119ZM12.2119 5.08301V3.43099H11.4648V5.08301V6.73503H12.2119V5.08301Z" fill="#080808" mask="url(#path-2-inside-1_40001635_51820)"/>
<path d="M4.12793 2.46777C4.12573 2.47321 4.12431 2.47896 4.12207 2.48438C4.01137 2.75162 3.84907 2.99468 3.64453 3.19922C3.43999 3.40376 3.19693 3.56606 2.92969 3.67676C2.92427 3.679 2.91852 3.68042 2.91309 3.68262V2.46777H4.12793Z" fill="#080808" stroke="#080808" stroke-width="1.65202"/>
<path d="M19.0439 2.46777C19.0461 2.47321 19.0476 2.47896 19.0498 2.48438C19.1605 2.75162 19.3228 2.99468 19.5273 3.19922C19.7319 3.40376 19.9749 3.56606 20.2422 3.67676C20.2476 3.679 20.2534 3.68042 20.2588 3.68262V2.46777H19.0439Z" fill="#080808" stroke="#080808" stroke-width="1.65202"/>
<path d="M4.12793 13.2056C4.12573 13.2001 4.12431 13.1944 4.12207 13.189C4.01137 12.9217 3.84907 12.6787 3.64453 12.4741C3.43999 12.2696 3.19693 12.1073 2.92969 11.9966C2.92427 11.9943 2.91852 11.9929 2.91309 11.9907V13.2056H4.12793Z" fill="#080808" stroke="#080808" stroke-width="1.65202"/>
<path d="M19.0439 13.2056C19.0461 13.2001 19.0476 13.1944 19.0498 13.189C19.1605 12.9217 19.3228 12.6787 19.5273 12.4741C19.7319 12.2696 19.9749 12.1073 20.2422 11.9966C20.2476 11.9943 20.2534 11.9929 20.2588 11.9907V13.2056H19.0439Z" fill="#080808" stroke="#080808" stroke-width="1.65202"/>
</svg>
