<svg width="30" height="30" viewBox="0 0 30 30" fill="none" xmlns="http://www.w3.org/2000/svg">
<circle cx="15" cy="15" r="15" fill="#B6FBDF"/>
<path d="M21.2445 24.2064C19.4013 24.169 18.0105 23.8779 16.7732 23.0478C16.1142 22.6052 15.5693 22.0504 15.3096 21.2773C14.8946 20.0597 15.2742 19.0348 16.1653 18.1771C17.0147 17.3911 18.0802 16.8778 19.2243 16.7037C21.0321 16.3693 22.7887 16.5207 24.4471 17.3765C25.0232 17.6651 25.5304 18.0743 25.9342 18.5764C26.356 19.0764 26.5873 19.7095 26.5873 20.3636C26.5873 21.0177 26.356 21.6508 25.9342 22.1507C25.2186 23.016 24.235 23.6182 23.1389 23.8622C22.3973 24.0589 21.6301 24.1395 21.2445 24.2064ZM20.3416 22.3829C20.5206 22.3829 20.7016 22.3829 20.8826 22.3829C20.9869 22.3829 21.087 22.3414 21.1608 22.2676C21.2346 22.1938 21.276 22.0938 21.276 21.9894C21.2809 21.8839 21.2443 21.7806 21.1742 21.7015C21.104 21.6225 21.0057 21.5741 20.9003 21.5665C20.819 21.5616 20.7376 21.5616 20.6564 21.5665C19.7849 21.5665 18.9331 21.4996 18.1463 21.1101C18.0981 21.0852 18.0453 21.0706 17.9912 21.0671C17.937 21.0636 17.8828 21.0714 17.8318 21.0898C17.7808 21.1083 17.7342 21.1371 17.6949 21.1745C17.6556 21.2118 17.6244 21.2569 17.6033 21.3068C17.5794 21.3534 17.5651 21.4042 17.561 21.4563C17.557 21.5085 17.5634 21.5609 17.5799 21.6105C17.5964 21.6602 17.6226 21.706 17.657 21.7454C17.6915 21.7848 17.7334 21.8169 17.7804 21.8399C17.872 21.8974 17.9688 21.9461 18.0695 21.9855C18.7952 22.2597 19.566 22.3945 20.3416 22.3829Z" fill="#343A46"/>
<path d="M14.9788 22.5131C14.2766 22.9854 13.4865 23.3112 12.6556 23.4711C10.8202 23.841 9.03403 23.7072 7.35605 22.8358C6.86 22.5757 6.40847 22.2384 6.01838 21.8364C4.8617 20.6561 4.88924 18.9978 6.03412 17.7998C6.79825 17.0332 7.7664 16.502 8.82355 16.2694C11.2156 15.6635 13.4031 16.173 15.4293 17.5166C15.4668 17.5449 15.5029 17.5751 15.5375 17.6071C14.1486 19.0962 13.9165 20.7152 14.9788 22.5131ZM10.7671 18.5788C11.5697 18.6123 12.3703 18.6556 13.11 19.0313C13.1587 19.0591 13.2125 19.0767 13.2682 19.0829C13.3239 19.0891 13.3803 19.0839 13.4339 19.0675C13.4876 19.0512 13.5373 19.024 13.58 18.9877C13.6227 18.9515 13.6576 18.9068 13.6825 18.8566C13.7073 18.8063 13.7216 18.7515 13.7245 18.6956C13.7274 18.6396 13.7189 18.5836 13.6993 18.531C13.6798 18.4785 13.6497 18.4305 13.6109 18.39C13.5722 18.3495 13.5255 18.3174 13.4739 18.2956C13.3557 18.2294 13.2328 18.1722 13.106 18.1244C12.4247 17.8835 11.7081 17.7572 10.9855 17.7507C10.7696 17.7375 10.5529 17.7441 10.3383 17.7703C10.285 17.7747 10.2332 17.7901 10.1863 17.8157C10.1394 17.8413 10.0984 17.8765 10.0659 17.919C10.0335 17.9615 10.0103 18.0103 9.9979 18.0623C9.98552 18.1143 9.98419 18.1683 9.99401 18.2208C9.99552 18.2708 10.0069 18.3199 10.0276 18.3654C10.0482 18.4109 10.0777 18.4519 10.1143 18.4859C10.1509 18.5199 10.1939 18.5464 10.2408 18.5637C10.2877 18.581 10.3375 18.5888 10.3874 18.5867C10.5153 18.5906 10.6412 18.5867 10.7671 18.5867V18.5788Z" fill="#343A46"/>
<path d="M4.55633 18.5393C3.06916 17.8941 2.49672 15.86 3.40358 14.4221C3.89328 13.6622 4.61277 13.0784 5.45729 12.7559C7.96345 11.7389 10.4204 11.8077 12.7574 13.2477C13.245 13.5241 13.6642 13.9067 13.984 14.367C14.3037 14.8274 14.5158 15.3538 14.6046 15.9073C14.6046 15.9505 14.6046 15.9938 14.6223 16.0745C14.2879 15.9427 13.9869 15.8109 13.6761 15.7027C12.5616 15.284 11.37 15.1106 10.1825 15.1945C8.99494 15.2783 7.83948 15.6174 6.79496 16.1886C5.81947 16.6709 5.04451 17.4806 4.60551 18.4764C4.59263 18.4999 4.57602 18.5211 4.55633 18.5393Z" fill="#343A46"/>
<path d="M12.2998 12.0115C12.8874 11.643 13.5333 11.377 14.2099 11.2246C16.0846 10.7899 17.9082 10.9138 19.657 11.7538C20.3804 12.0774 20.9985 12.5974 21.4412 13.2547C21.8759 13.9295 22.0589 14.6495 21.8012 15.4481C21.7284 15.6763 21.6379 15.7589 21.39 15.7452C19.9589 15.639 18.5242 15.8968 17.2197 16.4946C16.9294 16.6363 16.6477 16.7946 16.3758 16.9687C16.3334 17.0061 16.2788 17.0267 16.2223 17.0267C16.1658 17.0267 16.1113 17.0061 16.0689 16.9687C15.6991 16.7071 15.2387 16.5143 15.4414 15.9163C15.1955 14.1714 14.1391 13.0364 12.6696 12.2161C12.5673 12.159 12.4611 12.1079 12.3569 12.0528L12.2998 12.0115Z" fill="#343A46"/>
<path d="M21.501 12.0093C19.7443 10.5064 17.7004 10.0421 15.4697 10.1857C14.2661 10.2551 13.0944 10.5997 12.0449 11.1929C11.8258 11.3403 11.6162 11.5012 11.4173 11.6748C9.75618 11.1638 7.98603 11.1223 6.30273 11.5549C6.38734 11.2884 6.4919 11.0286 6.61551 10.7778C7.09943 9.96146 7.86859 9.51688 8.74201 9.23951C10.3866 8.71428 11.9721 8.94837 13.5163 9.64671C13.597 9.68409 13.6776 9.72736 13.7622 9.75687C13.8596 9.79659 13.9683 9.79843 14.0669 9.76203C14.1656 9.72562 14.2471 9.65361 14.2953 9.56016C14.3194 9.51123 14.3335 9.45795 14.3366 9.40348C14.3397 9.34902 14.3319 9.29448 14.3136 9.2431C14.2952 9.19173 14.2667 9.14456 14.2298 9.10441C14.1929 9.06425 14.1482 9.03193 14.0986 9.00935C13.8173 8.86772 13.5281 8.74969 13.233 8.61592C15.0585 7.40612 18.4971 7.64415 19.8171 9.3123C19.6696 9.38115 19.524 9.44606 19.3824 9.51885C19.1148 9.65458 19.0224 9.86507 19.1266 10.0893C19.1516 10.1417 19.1872 10.1883 19.2312 10.2262C19.2751 10.2641 19.3265 10.2925 19.3819 10.3095C19.4374 10.3265 19.4958 10.3318 19.5535 10.325C19.6111 10.3183 19.6667 10.2997 19.7168 10.2703C21.2571 9.59557 22.7757 9.75491 24.2412 10.4473C24.6858 10.6559 25.0458 11.0375 25.4353 11.3601C25.5119 11.442 25.578 11.5332 25.632 11.6316C23.3088 11.5411 22.2583 11.6375 21.501 12.0093Z" fill="#343A46"/>
<path d="M27.2632 19.2453C26.3642 17.1582 24.6095 16.3261 22.542 15.852C22.7112 15.3169 22.839 14.7622 22.6915 14.2133C22.5439 13.6645 22.3335 13.1845 22.1328 12.6219C22.5262 12.557 22.9984 12.4547 23.4665 12.4252C25.0403 12.2934 26.5668 12.5275 27.9674 13.3202C28.4762 13.5988 28.9226 13.9784 29.2795 14.4356C29.6733 14.9105 29.8872 15.5091 29.8836 16.126C29.88 16.743 29.6592 17.339 29.2598 17.8093C28.7273 18.4501 28.0401 18.9444 27.2632 19.2453ZM28.4061 15.8087C28.349 15.7477 28.2644 15.5726 28.1405 15.5333C27.4363 15.3149 26.7242 15.1202 26.0101 14.9431C25.9563 14.9321 25.9008 14.9325 25.8472 14.9442C25.7936 14.9559 25.743 14.9787 25.6988 15.0111C25.6545 15.0436 25.6175 15.0849 25.5901 15.1325C25.5628 15.18 25.5457 15.2328 25.5399 15.2874C25.5237 15.3912 25.5482 15.4972 25.6083 15.5834C25.6684 15.6695 25.7595 15.7291 25.8625 15.7497C26.0022 15.7851 26.1478 15.793 26.2874 15.8323C26.7871 15.9759 27.2887 16.1254 27.7864 16.2769C27.8588 16.3095 27.9387 16.322 28.0176 16.3132C28.0966 16.3043 28.1717 16.2743 28.235 16.2265C28.2984 16.1786 28.3477 16.1145 28.3778 16.041C28.4079 15.9675 28.4177 15.8873 28.4061 15.8087Z" fill="#343A46"/>
</svg>
