<svg width="30" height="30" viewBox="0 0 30 30" fill="none" xmlns="http://www.w3.org/2000/svg">
<rect width="30" height="30" rx="15" fill="#9FDFFF" fill-opacity="0.2"/>
<path d="M18.7027 8.8328L17.1955 8.0415C15.8722 7.34742 15.2105 7 14.4991 7C13.7876 7 13.126 7.34666 11.8026 8.0415L11.5607 8.16886L18.2852 12.0116L21.3118 10.4968C20.8249 9.94514 20.0397 9.53291 18.7027 8.83129M21.8453 11.4946L18.8324 13.0018V15.2898C18.8324 15.4397 18.7728 15.5835 18.6668 15.6895C18.5608 15.7955 18.4171 15.855 18.2672 15.855C18.1172 15.855 17.9735 15.7955 17.8675 15.6895C17.7615 15.5835 17.7019 15.4397 17.7019 15.2898V13.567L15.0643 14.8859V22C15.6054 21.8651 16.2211 21.5426 17.1955 21.0308L18.7027 20.2396C20.3238 19.3887 21.1347 18.9637 21.5853 18.1988C22.0352 17.4346 22.0352 16.4828 22.0352 14.5814V14.4932C22.0352 13.0666 22.0352 12.1743 21.8453 11.4946ZM13.9339 22V14.8859L7.1528 11.4946C6.96289 12.1743 6.96289 13.0666 6.96289 14.4917V14.5799C6.96289 16.4828 6.96289 17.4346 7.4128 18.1988C7.86346 18.9637 8.67436 19.3895 10.2954 20.2403L11.8026 21.0308C12.777 21.5426 13.3928 21.8651 13.9339 22ZM7.68636 10.4975L14.4991 13.9039L17.0697 12.619L10.373 8.7921L10.2954 8.8328C8.95922 9.53366 8.1732 9.94589 7.68636 10.4983" fill="#0F81BA"/>
</svg>
