<svg width="24" height="24" viewBox="0 0 24 24" fill="none" xmlns="http://www.w3.org/2000/svg">
<path d="M21.0068 6.60449V6.60547L21.0156 6.61133C21.4815 6.90786 21.7499 7.47028 21.75 8.0498V18.5C21.75 19.4619 20.9619 20.25 20 20.25H4C3.03807 20.25 2.25 19.4619 2.25 18.5V8.0498L2.26172 7.83887C2.31832 7.35211 2.5712 6.9107 2.99609 6.60156L12 0.304688L21.0068 6.60449Z" fill="#78909C" stroke="black" stroke-width="0.5"/>
<path d="M7 0.5H17V16H7V0.5Z" fill="#AED581"/>
<path d="M6.5 0V16.5H17.5V0H6.5ZM16.5 15.5H7.5V1H16.5V15.5Z" fill="#558B2F"/>
<path d="M17 1.5C17 2.35 16.85 3 16 3C15.15 3 14.5 2.35 14.5 1.5C14.5 0.65 15.15 0.5 16 0.5C16.85 0.5 17 0.65 17 1.5ZM8 0.5C8.85 0.5 9.5 0.65 9.5 1.5C9.5 2.35 8.85 3 8 3C7.15 3 7 2.35 7 1.5C7 0.65 7.15 0.5 8 0.5Z" fill="#558B2F"/>
<path d="M12 5C12.5523 5 13 4.55228 13 4C13 3.44772 12.5523 3 12 3C11.4477 3 11 3.44772 11 4C11 4.55228 11.4477 5 12 5Z" fill="#558B2F"/>
<path d="M12 13C13.6569 13 15 11.6569 15 10C15 8.34315 13.6569 7 12 7C10.3431 7 9 8.34315 9 10C9 11.6569 10.3431 13 12 13Z" fill="#558B2F"/>
<path d="M21.75 18.5C21.75 19.4619 20.9619 20.25 20 20.25H4C3.03807 20.25 2.25 19.4619 2.25 18.5V8.96094L11.8633 15.21L12 15.2979L12.1367 15.21L21.75 8.96094V18.5Z" fill="#558B2F" stroke="black" stroke-width="0.5"/>
</svg>
