<svg width="30" height="30" viewBox="0 0 30 30" fill="none" xmlns="http://www.w3.org/2000/svg">
<rect width="30" height="30" rx="15" fill="#9FEAFF"/>
<path d="M10.9159 11.738C11.6762 11.738 12.2952 11.119 12.2952 10.3587C12.2952 9.71483 11.3507 7.84283 11.1614 7.47373C11.0671 7.29001 10.7648 7.29001 10.6704 7.47373C10.4812 7.84283 9.53662 9.71483 9.53662 10.3587C9.53662 11.119 10.1557 11.738 10.9159 11.738Z" fill="#343A46"/>
<path d="M8.74045 14.0929C9.00087 14.3533 9.34735 14.4967 9.7159 14.4967C10.0845 14.4967 10.4309 14.3533 10.6914 14.0929C10.8006 13.9836 10.8845 13.8562 10.9507 13.721C11.0246 13.8793 11.1278 14.0239 11.2596 14.1464C11.5156 14.3853 11.85 14.5166 12.1998 14.5166C12.581 14.5166 12.949 14.3566 13.2089 14.078C13.6475 13.6073 14.2334 11.5936 14.3465 11.1947C14.3747 11.0953 14.3449 10.9883 14.2693 10.9177C14.1931 10.8471 14.0845 10.825 13.9879 10.8603C13.5978 11.001 11.6304 11.7265 11.1918 12.1971C11.0963 12.2998 11.024 12.4167 10.9645 12.5392C10.8971 12.3941 10.8078 12.2589 10.6914 12.1425C10.2367 11.6873 8.24445 11.0313 7.84997 10.9045C7.75287 10.8736 7.64418 10.8989 7.5708 10.9723C7.49687 11.0446 7.47094 11.1527 7.50238 11.2509C7.62928 11.646 8.28583 13.6377 8.74045 14.0929Z" fill="#343A46"/>
<path d="M8.74045 17.1981C9.00087 17.4585 9.34735 17.602 9.7159 17.602C10.0845 17.602 10.4309 17.4585 10.6914 17.1981C10.8006 17.0888 10.8845 16.9614 10.9507 16.8262C11.0246 16.9846 11.1278 17.1291 11.2596 17.2516C11.5156 17.4905 11.8494 17.6218 12.1998 17.6218C12.581 17.6218 12.949 17.4618 13.2089 17.1832C13.6475 16.7126 14.2334 14.6988 14.3465 14.2999C14.3747 14.2006 14.3449 14.0935 14.2693 14.0229C14.1931 13.9523 14.0845 13.9308 13.9879 13.9655C13.5978 14.1062 11.6304 14.8317 11.1918 15.3024C11.0963 15.405 11.024 15.5214 10.9645 15.6439C10.8971 15.4988 10.8078 15.3636 10.6914 15.2466C10.2367 14.7915 8.24445 14.1355 7.84997 14.0086C7.75287 13.9777 7.64418 14.0031 7.5708 14.0764C7.49687 14.1498 7.47094 14.258 7.50238 14.3562C7.62928 14.7512 8.28528 16.7429 8.74045 17.1981Z" fill="#343A46"/>
<path d="M8.73936 20.2954C8.99978 20.5559 9.34626 20.6993 9.71481 20.6993C10.0834 20.6993 10.4293 20.5559 10.6903 20.2954C10.7995 20.1862 10.8834 20.0587 10.9496 19.9236C11.0235 20.0819 11.1267 20.2265 11.2585 20.3495C11.5145 20.5884 11.8483 20.7197 12.1987 20.7197C12.5799 20.7197 12.9479 20.5597 13.2078 20.2811C13.6464 19.8105 14.2323 17.7972 14.3454 17.3978C14.3736 17.2985 14.3438 17.1914 14.2682 17.1208C14.1921 17.0502 14.0834 17.0281 13.9868 17.0634C13.5967 17.2041 11.6293 17.9296 11.1907 18.4003C11.0952 18.5029 11.0229 18.6199 10.9634 18.7423C10.8961 18.5972 10.8072 18.4621 10.6908 18.3456C10.2362 17.8905 8.24391 17.2345 7.84943 17.1076C7.75122 17.0761 7.64364 17.1026 7.57026 17.1754C7.49688 17.2483 7.47095 17.3564 7.5024 17.4546C7.62819 17.8485 8.28419 19.8403 8.73936 20.2954Z" fill="#343A46"/>
<path d="M11.665 20.651C11.5574 20.5434 11.3825 20.5434 11.275 20.651L10.918 21.008L10.5616 20.6516C10.454 20.544 10.2791 20.544 10.1715 20.6516C10.0639 20.7591 10.0639 20.934 10.1715 21.0416L10.6421 21.5122V23.0532C10.6421 23.2055 10.7657 23.3291 10.918 23.3291C11.0703 23.3291 11.1939 23.2055 11.1939 23.0532V21.5122L11.665 21.0411C11.7726 20.9335 11.7726 20.7591 11.665 20.651Z" fill="#343A46"/>
<path d="M19.7831 11.738C20.5434 11.738 21.1624 11.119 21.1624 10.3587C21.1624 9.71483 20.2179 7.84283 20.0286 7.47373C19.9343 7.29001 19.6319 7.29001 19.5376 7.47373C19.3484 7.84283 18.4038 9.71483 18.4038 10.3587C18.4038 11.119 19.0228 11.738 19.7831 11.738Z" fill="#343A46"/>
<path d="M17.5998 14.0929C17.8602 14.3533 18.2067 14.4967 18.5752 14.4967C18.9438 14.4967 19.2903 14.3533 19.5507 14.0929C19.6599 13.9836 19.7438 13.8562 19.81 13.721C19.8839 13.8793 19.9871 14.0239 20.1189 14.1464C20.3749 14.3853 20.7093 14.5166 21.0591 14.5166C21.4403 14.5166 21.8083 14.3566 22.0682 14.078C22.5068 13.6073 23.0927 11.5936 23.2058 11.1947C23.234 11.0953 23.2042 10.9883 23.1286 10.9177C23.0525 10.8471 22.9443 10.825 22.8472 10.8603C22.4572 11.001 20.4897 11.7265 20.0511 12.1971C19.9556 12.2998 19.8834 12.4167 19.8238 12.5392C19.7565 12.3941 19.6671 12.2589 19.5507 12.1425C19.0961 11.6873 17.1038 11.0313 16.7093 10.9045C16.6127 10.8736 16.5035 10.8989 16.4301 10.9723C16.3567 11.0451 16.3308 11.1533 16.3623 11.2515C16.4886 11.646 17.1452 13.6377 17.5998 14.0929Z" fill="#343A46"/>
<path d="M17.5998 17.1981C17.8602 17.4585 18.2067 17.602 18.5752 17.602C18.9438 17.602 19.2903 17.4585 19.5507 17.1981C19.6599 17.0888 19.7438 16.9614 19.81 16.8262C19.8839 16.9846 19.9871 17.1291 20.1189 17.2516C20.3749 17.4905 20.7087 17.6218 21.0591 17.6218C21.4403 17.6218 21.8083 17.4618 22.0682 17.1832C22.5068 16.7126 23.0927 14.6988 23.2058 14.2999C23.234 14.2006 23.2042 14.0935 23.1286 14.0229C23.0525 13.9523 22.9443 13.9308 22.8472 13.9655C22.4572 14.1062 20.4897 14.8317 20.0511 15.3024C19.9556 15.405 19.8834 15.5214 19.8238 15.6439C19.7565 15.4988 19.6671 15.3636 19.5507 15.2466C19.0961 14.7915 17.1038 14.1355 16.7093 14.0086C16.6127 13.9777 16.5035 14.0031 16.4301 14.0764C16.3567 14.1493 16.3308 14.2574 16.3623 14.3556C16.4886 14.7512 17.1446 16.7429 17.5998 17.1981Z" fill="#343A46"/>
<path d="M17.5992 20.2954C17.8596 20.5559 18.2061 20.6993 18.5747 20.6993C18.9432 20.6993 19.2892 20.5559 19.5501 20.2954C19.6594 20.1862 19.7432 20.0587 19.8094 19.9236C19.8834 20.0819 19.9865 20.2265 20.1184 20.3495C20.3744 20.5884 20.7082 20.7197 21.0585 20.7197C21.4398 20.7197 21.8078 20.5597 22.0676 20.2811C22.5063 19.8105 23.0922 17.7972 23.2053 17.3978C23.2334 17.2985 23.2036 17.1914 23.1281 17.1208C23.0519 17.0502 22.9438 17.0281 22.8467 17.0634C22.4566 17.2041 20.4892 17.9296 20.0505 18.4003C19.9551 18.5029 19.8828 18.6199 19.8232 18.7423C19.7559 18.5972 19.6671 18.4621 19.5507 18.3456C19.0961 17.8905 17.1038 17.2345 16.7093 17.1076C16.6116 17.0761 16.5035 17.1026 16.4301 17.1754C16.3567 17.2483 16.3308 17.3564 16.3623 17.4546C16.4881 17.8485 17.1441 19.8403 17.5992 20.2954Z" fill="#343A46"/>
<path d="M20.5317 20.651C20.4241 20.5434 20.2492 20.5434 20.1416 20.651L19.7852 21.0074L19.4288 20.651C19.3212 20.5434 19.1463 20.5434 19.0387 20.651C18.9311 20.7586 18.9311 20.9335 19.0387 21.0411L19.5099 21.5122V23.0532C19.5099 23.2055 19.6335 23.3291 19.7857 23.3291C19.938 23.3291 20.0616 23.2055 20.0616 23.0532V21.5122L20.5328 21.0411C20.6392 20.9335 20.6392 20.7591 20.5317 20.651Z" fill="#343A46"/>
<path d="M8.70994 21.1172C8.55767 21.1172 8.43408 21.2408 8.43408 21.393V23.0482C8.43408 23.2005 8.55767 23.3241 8.70994 23.3241C8.86222 23.3241 8.98581 23.2005 8.98581 23.0482V21.393C8.98581 21.2408 8.86222 21.1172 8.70994 21.1172Z" fill="#343A46"/>
<path d="M9.81248 21.668C9.66021 21.668 9.53662 21.7916 9.53662 21.9438V23.0473C9.53662 23.1996 9.66021 23.3231 9.81248 23.3231C9.96476 23.3231 10.0883 23.1996 10.0883 23.0473V21.9438C10.0883 21.7916 9.96476 21.668 9.81248 21.668Z" fill="#343A46"/>
<path d="M13.124 21.1172C12.9717 21.1172 12.8481 21.2408 12.8481 21.393V23.0482C12.8481 23.2005 12.9717 23.3241 13.124 23.3241C13.2763 23.3241 13.3999 23.2005 13.3999 23.0482V21.393C13.3999 21.2408 13.2763 21.1172 13.124 21.1172Z" fill="#343A46"/>
<path d="M14.2265 21.668C14.0743 21.668 13.9507 21.7916 13.9507 21.9438V23.0473C13.9507 23.1996 14.0743 23.3231 14.2265 23.3231C14.3788 23.3231 14.5024 23.1996 14.5024 23.0473V21.9438C14.5024 21.7916 14.3788 21.668 14.2265 21.668Z" fill="#343A46"/>
<path d="M15.3359 21.1172C15.1836 21.1172 15.0601 21.2408 15.0601 21.393V23.0482C15.0601 23.2005 15.1836 23.3241 15.3359 23.3241C15.4882 23.3241 15.6118 23.2005 15.6118 23.0482V21.393C15.6118 21.2408 15.4882 21.1172 15.3359 21.1172Z" fill="#343A46"/>
<path d="M16.437 21.1172C16.2847 21.1172 16.1611 21.2408 16.1611 21.393V23.0482C16.1611 23.2005 16.2847 23.3241 16.437 23.3241C16.5893 23.3241 16.7129 23.2005 16.7129 23.0482V21.393C16.7129 21.2408 16.5893 21.1172 16.437 21.1172Z" fill="#343A46"/>
<path d="M17.5381 21.668C17.3858 21.668 17.2622 21.7916 17.2622 21.9438V23.0473C17.2622 23.1996 17.3858 23.3231 17.5381 23.3231C17.6903 23.3231 17.8139 23.1996 17.8139 23.0473V21.9438C17.8139 21.7916 17.6903 21.668 17.5381 21.668Z" fill="#343A46"/>
<path d="M18.6406 21.668C18.4883 21.668 18.3647 21.7916 18.3647 21.9438V23.0473C18.3647 23.1996 18.4883 23.3231 18.6406 23.3231C18.7929 23.3231 18.9165 23.1996 18.9165 23.0473V21.9438C18.9165 21.7916 18.7929 21.668 18.6406 21.668Z" fill="#343A46"/>
<path d="M20.8511 21.668C20.6988 21.668 20.5752 21.7916 20.5752 21.9438V23.0473C20.5752 23.1996 20.6988 23.3231 20.8511 23.3231C21.0033 23.3231 21.1269 23.1996 21.1269 23.0473V21.9438C21.1269 21.7916 21.0033 21.668 20.8511 21.668Z" fill="#343A46"/>
<path d="M21.9521 21.1172C21.7999 21.1172 21.6763 21.2408 21.6763 21.393V23.0482C21.6763 23.2005 21.7999 23.3241 21.9521 23.3241C22.1044 23.3241 22.228 23.2005 22.228 23.0482V21.393C22.228 21.2408 22.1044 21.1172 21.9521 21.1172Z" fill="#343A46"/>
<path d="M23.0547 20.5703C22.9024 20.5703 22.7788 20.6939 22.7788 20.8462V23.0531C22.7788 23.2053 22.9024 23.3289 23.0547 23.3289C23.2069 23.3289 23.3305 23.2053 23.3305 23.0531V20.8462C23.3305 20.6939 23.2069 20.5703 23.0547 20.5703Z" fill="#343A46"/>
<path d="M7.60887 20.5703C7.45659 20.5703 7.33301 20.6939 7.33301 20.8462V23.0531C7.33301 23.2053 7.45659 23.3289 7.60887 23.3289C7.76115 23.3289 7.88473 23.2053 7.88473 23.0531V20.8462C7.88473 20.6939 7.76115 20.5703 7.60887 20.5703Z" fill="#343A46"/>
<path d="M12.0229 21.668C11.8707 21.668 11.7471 21.7916 11.7471 21.9438V23.0473C11.7471 23.1996 11.8707 23.3231 12.0229 23.3231C12.1752 23.3231 12.2988 23.1996 12.2988 23.0473V21.9438C12.2988 21.7916 12.1752 21.668 12.0229 21.668Z" fill="#343A46"/>
</svg>
