<svg width="30" height="30" viewBox="0 0 30 30" fill="none" xmlns="http://www.w3.org/2000/svg">
<circle cx="15" cy="15" r="15" fill="#F8A259"/>
<path d="M25.5583 22.451C24.6865 23.0603 23.7448 23.1005 22.7948 22.7015C21.376 22.1073 20.5171 21.0423 20.2654 19.5088C20.2039 19.1333 20.1481 18.7575 20.1027 18.3797C20.0796 18.17 20.0052 17.9692 19.8861 17.795C19.767 17.6208 19.607 17.4785 19.42 17.3808C18.9565 17.1173 18.5101 16.8249 18.0834 16.5053C16.9985 15.667 16.4966 13.8893 16.9532 12.6013C17.0538 12.2947 17.2142 12.0111 17.425 11.7668C17.6357 11.5225 17.8928 11.3223 18.1813 11.1778C18.4698 11.0333 18.7841 10.9474 19.106 10.925C19.4279 10.9026 19.751 10.9441 20.0568 11.0471C21.5508 11.5118 22.4822 12.5046 22.7929 14.0533C22.856 14.4019 22.9191 14.7505 22.9822 15.0991C23.0188 15.327 23.1137 15.5416 23.2578 15.722C23.4019 15.9023 23.5902 16.0423 23.8044 16.1283C24.5383 16.4634 25.2446 16.8727 25.7384 17.5242C26.5931 18.6656 26.9198 19.9371 26.4147 21.3347C26.2471 21.7839 25.9488 22.1727 25.5583 22.451Z" fill="#373736"/>
<path d="M10.1082 14.4178C9.68204 13.9422 9.37294 13.3736 9.2056 12.7573C9.03825 12.141 9.01729 11.4941 9.1444 10.8683C9.2494 10.1254 9.60788 9.44158 10.1592 8.93265C11.0961 8.10633 12.2838 7.96905 13.347 8.64348C14.802 9.56093 15.4715 10.9043 15.3089 12.6352C15.2904 12.8351 15.2595 13.0344 15.2223 13.2305C15.1358 13.6662 15.1499 14.1159 15.2636 14.5453C15.3773 14.9747 15.5875 15.3725 15.8783 15.7082C16.2177 16.1143 16.5234 16.5473 16.7925 17.003C17.6146 18.4656 17.3025 20.6153 16.1314 21.7792C15.2848 22.623 13.9776 22.7884 12.8627 22.222C11.4839 21.5147 10.3626 19.6764 10.6488 17.8885C10.6863 17.6506 10.7074 17.4092 10.7602 17.1757C10.9992 16.1416 10.8161 15.2178 10.1082 14.4178ZM11.0638 13.6112C11.1724 13.7377 11.2547 13.8423 11.3472 13.9393C12.2138 14.856 13.4357 14.6535 13.8849 13.5195C14.3341 12.3854 13.9396 10.7273 12.9966 9.91734C12.451 9.45304 11.8522 9.35121 11.2949 9.65372C11.109 9.76171 10.9474 9.90674 10.8199 10.0798C10.6925 10.2529 10.6019 10.4503 10.554 10.6598C10.2468 11.7351 10.4932 12.7143 11.0638 13.6112ZM15.065 16.8556C14.9277 16.7002 14.7824 16.552 14.6297 16.4117C13.7398 15.6728 12.6696 15.9616 12.2581 17.0456C11.827 18.1958 12.2497 19.8467 13.2076 20.6316C13.6522 20.9954 14.1521 21.1634 14.7166 20.9366C14.9336 20.8452 15.1263 20.7044 15.2791 20.5253C15.432 20.3462 15.5408 20.1339 15.597 19.9052C15.9274 18.8107 15.6803 17.8121 15.065 16.8556Z" fill="#373736"/>
<path d="M12.9589 10.6643C13.4407 11.408 13.6581 12.2031 13.4426 13.0731C13.3787 13.3173 13.2583 13.5431 13.091 13.7322C12.7666 14.092 12.235 14.0507 11.8316 13.6362C11.0631 12.8559 10.8233 11.9172 11.0592 10.8498C11.0654 10.8237 11.0732 10.798 11.0827 10.7728C11.371 9.93937 12.0873 9.77513 12.7129 10.3992C12.7972 10.4905 12.8773 10.579 12.9589 10.6643Z" fill="#373736"/>
<path d="M13.1779 19.8084C12.6876 19.077 12.4753 18.2543 12.7313 17.3619C12.9874 16.4694 13.748 16.272 14.3967 16.9559C15.0968 17.6925 15.3081 18.5853 15.11 19.5709C15.0244 19.9853 14.842 20.3654 14.3837 20.4671C13.9254 20.5688 13.5803 20.277 13.2811 19.9488C13.2538 19.9178 13.2292 19.8769 13.1779 19.8084Z" fill="#373736"/>
</svg>
