<svg width="30" height="30" viewBox="0 0 30 30" fill="none" xmlns="http://www.w3.org/2000/svg">
<rect width="30" height="30" rx="15" fill="#9FDFFF" fill-opacity="0.2"/>
<path d="M18.7037 8.8328L17.1965 8.0415C15.8731 7.34742 15.2115 7 14.5 7C13.7886 7 13.127 7.34666 11.8036 8.0415L11.5617 8.16886L18.2862 12.0116L21.3127 10.4968C20.8259 9.94514 20.0406 9.53291 18.7037 8.83129M21.8463 11.4946L18.8333 13.0018V15.2898C18.8333 15.4397 18.7738 15.5835 18.6678 15.6895C18.5618 15.7955 18.418 15.855 18.2681 15.855C18.1182 15.855 17.9745 15.7955 17.8685 15.6895C17.7625 15.5835 17.7029 15.4397 17.7029 15.2898V13.567L15.0653 14.8859V22C15.6064 21.8651 16.2221 21.5426 17.1965 21.0308L18.7037 20.2396C20.3247 19.3887 21.1356 18.9637 21.5863 18.1988C22.0362 17.4346 22.0362 16.4828 22.0362 14.5814V14.4932C22.0362 13.0666 22.0362 12.1743 21.8463 11.4946ZM13.9348 22V14.8859L7.15378 11.4946C6.96387 12.1743 6.96387 13.0666 6.96387 14.4917V14.5799C6.96387 16.4828 6.96387 17.4346 7.41378 18.1988C7.86444 18.9637 8.67533 19.3895 10.2964 20.2403L11.8036 21.0308C12.778 21.5426 13.3937 21.8651 13.9348 22ZM7.68734 10.4975L14.5 13.9039L17.0706 12.619L10.374 8.7921L10.2964 8.8328C8.9602 9.53366 8.17418 9.94589 7.68734 10.4983" fill="#0F81BA"/>
</svg>
