<svg width="58" height="84" viewBox="0 0 58 84" fill="none" xmlns="http://www.w3.org/2000/svg">
<path d="M48.6247 62.3518C48.5593 62.2864 48.4284 62.2864 48.363 62.2209C48.2976 62.1555 48.2321 62.0901 48.2976 62.0247C48.4284 61.3704 48.5593 60.7816 48.6901 60.1273C48.821 59.4076 48.9518 58.7533 48.821 58.0336C48.363 55.6128 46.1385 54.108 43.7831 54.5006C42.2129 54.7623 41.0352 55.6783 40.5118 57.2485C40.1846 58.1645 40.0538 59.1459 39.8575 60.1273C39.7921 60.3236 39.7266 60.4544 39.5304 60.4544C38.9415 60.4544 38.7452 60.6507 38.6144 61.1087C38.2872 62.8098 37.9601 64.4454 37.5676 66.1466C37.4367 66.8662 37.5021 67.0625 37.9601 67.3242C40.1846 68.6982 42.54 69.4179 45.1571 69.4179C45.9422 69.3525 46.7273 69.2216 47.5124 69.1562C47.8396 69.0908 48.0359 68.8945 48.0359 68.6328C48.4284 66.8662 48.7555 65.0997 49.1481 63.3332C49.1481 62.7444 49.0827 62.6135 48.6247 62.3518ZM44.0448 64.7072C43.8485 64.838 43.8485 64.9689 43.7831 65.1651C43.6523 65.6886 43.5868 66.1466 43.5214 66.67C43.456 67.0625 43.1943 67.2588 42.8017 67.1934C42.4746 67.128 42.3437 66.8008 42.4091 66.4083C42.54 65.8848 42.6708 65.296 42.7363 64.7726C42.7363 64.6417 42.6708 64.5109 42.6054 64.38C42.1474 63.7258 42.4091 62.8752 43.1943 62.6135C43.3251 62.5481 43.3905 62.5481 43.5214 62.5481C44.0448 62.5481 44.5028 62.8752 44.6336 63.3986C44.7645 63.922 44.5682 64.4455 44.0448 64.7072ZM47.1199 59.9964C47.0544 60.4544 46.9236 60.9124 46.8582 61.3704C44.1757 60.4544 44.1757 60.4544 41.3623 60.2581C41.4277 59.8001 41.5586 59.3422 41.624 58.8842C41.6894 58.557 41.7549 58.2299 41.8203 57.9028C42.2129 56.7905 42.998 56.1362 44.1757 55.94C45.6805 55.6783 47.1199 56.9214 47.3162 58.2953C47.3816 58.9496 47.2507 59.473 47.1199 59.9964ZM13.3596 74.2595C14.9299 74.2595 16.5655 74.1941 18.1358 73.9978C18.9863 73.8669 19.8369 73.8015 20.7529 73.6706C22.1268 73.4089 23.5662 73.1472 24.9402 72.7547C28.6695 71.8387 32.2026 70.4647 35.5393 68.6328C35.9319 68.4365 36.3899 68.1748 36.7824 67.9785C36.5861 67.6514 36.3899 67.3242 36.259 67.0625C36.1936 67.0625 36.1282 67.128 36.0627 67.1934C33.9691 68.3711 31.7446 69.4179 29.5201 70.203C27.4918 70.9881 25.3982 71.577 23.3045 72.035C21.996 72.2967 20.622 72.5584 19.3135 72.7547C18.5283 72.8855 17.8086 72.9509 17.0235 73.0164C16.0421 73.0818 15.0607 73.2127 14.1447 73.2127C12.7708 73.2127 11.3968 73.1472 10.0228 73.1472C9.36858 73.1472 8.71431 73.0818 7.99462 73.0164C7.20949 72.9509 6.42437 72.8201 5.63925 72.6892C4.65785 72.493 3.67644 72.3621 2.69504 72.1658C2.04077 72.035 1.3865 71.8387 0.732235 71.7078C0.405101 71.6424 0.0779626 71.7733 0.0125358 72.1004C-0.0528911 72.4275 0.143392 72.6892 0.470527 72.8201C2.36791 73.3435 4.33071 73.7361 6.29352 73.9978C7.53663 74.1941 8.84516 74.3249 10.0883 74.3903C11.1351 74.3249 12.2474 74.2595 13.3596 74.2595ZM36.9787 70.0722C37.4367 69.6796 37.8293 69.287 38.2872 68.8945C37.8947 68.6982 37.5676 68.5019 37.2404 68.3056C35.8665 69.5488 34.3616 70.7264 32.8568 71.7733C28.5386 74.7829 23.8933 77.0074 18.8555 78.3814C16.5001 79.0356 14.0793 79.5591 11.6585 79.8208C10.6771 79.9516 9.69571 80.017 8.77974 80.0825C8.4526 80.0825 8.19089 80.3442 8.19089 80.6059C8.19089 80.8676 8.4526 81.1947 8.77974 81.1293C9.49943 81.0639 10.2846 80.9985 11.0042 80.933C11.9202 80.8676 12.8362 80.7367 13.6867 80.6059C15.1916 80.3442 16.631 80.017 18.1358 79.6899C21.996 78.7085 25.6599 77.2691 29.1275 75.3717C31.8754 73.8669 34.4925 72.1004 36.9787 70.0722ZM47.2507 46.5185C47.1199 47.4999 47.0544 48.5467 46.8582 49.5281C46.7273 50.575 46.4656 51.5564 46.3348 52.6032C46.2693 52.8649 46.2039 53.192 46.1385 53.3883C46.531 53.5192 46.8582 53.7155 47.1853 53.8463L47.2507 53.7809C47.5779 52.2106 47.905 50.6404 48.1013 49.0047C48.1667 48.2196 48.2976 47.369 48.363 46.5839C48.4284 45.7988 48.4938 45.0137 48.4938 44.294C48.4938 42.6583 48.4938 41.0226 48.4284 39.4524C48.363 38.4056 48.2321 37.4242 48.1013 36.3773C47.9704 35.5268 47.905 34.6762 47.7087 33.8257C47.3816 32.2554 46.989 30.6852 46.5965 29.115C46.531 28.7224 46.2039 28.5261 45.9422 28.657C45.6151 28.7878 45.4842 29.0495 45.5496 29.4421C46.073 31.4049 46.5965 33.3023 46.8582 35.3305C46.989 36.4428 47.1853 37.555 47.2507 38.6673C47.3162 39.4524 47.3816 40.1721 47.3816 40.9572C47.3816 42.1349 47.3816 43.3126 47.3816 44.4903C47.3162 45.1445 47.3162 45.7988 47.2507 46.5185ZM48.821 55.2203C48.821 55.1548 48.8864 55.1548 48.8864 55.0894C50.5221 51.8835 51.8306 48.5467 52.6812 45.0137C52.9429 43.836 53.2046 42.6583 53.4663 41.4806C53.5971 40.7609 53.728 40.0412 53.7934 39.3215C53.8588 38.6673 53.9897 38.013 54.0551 37.3587C54.1205 36.8353 54.1205 36.3119 54.186 35.7885C54.2514 34.9379 54.2514 34.0874 54.2514 33.2368C54.2514 33.106 54.1205 32.9097 53.9897 32.7789C53.8588 32.648 53.5971 32.648 53.4009 32.7134C53.1391 32.8443 53.0737 33.0406 53.0737 33.3023C53.0737 34.7417 53.0083 36.1811 52.8774 37.555C52.812 38.4056 52.7466 39.2561 52.5503 40.1067C52.354 41.2843 52.1577 42.3966 51.896 43.5089C51.438 45.7334 50.7183 47.9579 49.8678 50.0515C49.279 51.4909 48.6247 52.8649 48.0359 54.2389C48.0359 54.3043 47.9704 54.4351 48.0359 54.4351C48.2976 54.6969 48.5593 54.9586 48.821 55.2203ZM38.7452 69.8105C37.6984 71.3807 36.5207 72.8201 35.2122 74.1941C34.2308 75.2409 33.2494 76.2877 32.2026 77.2037C31.2211 78.1197 30.2397 78.9702 29.1929 79.7553C27.8844 80.7367 26.5104 81.6527 25.2019 82.5687C25.0056 82.6995 24.8747 82.8958 24.9402 83.1575C25.0056 83.6155 25.4636 83.7464 25.8561 83.4847C27.6881 82.3724 29.3892 81.1293 31.0249 79.7553C32.2025 78.7739 33.3148 77.7271 34.3616 76.6803C35.5393 75.4372 36.6516 74.1941 37.7638 72.8855C38.6144 71.9041 39.3341 70.8573 40.1192 69.745C39.8575 69.6796 39.7266 69.6142 39.5304 69.4833C39.0724 69.287 39.0724 69.287 38.7452 69.8105ZM57.6536 42.462C57.3265 42.3966 57.0648 42.5275 56.9339 42.8546C56.0834 45.0791 55.102 47.1728 53.9243 49.2664C52.6157 51.6218 51.1109 53.8463 49.4098 55.94C49.3444 56.0054 49.3444 56.1362 49.4098 56.2017C49.5407 56.5288 49.6715 56.7905 49.8024 57.1176C49.8678 57.1176 49.8678 57.0522 49.8678 57.0522C50.5221 56.2017 51.2418 55.3511 51.896 54.5006C54.0551 51.4909 55.8871 48.285 57.3265 44.8828C57.5227 44.3594 57.719 43.836 57.9153 43.3126C58.1116 42.8546 57.9153 42.5275 57.6536 42.462ZM42.8017 18.7775C42.998 19.8243 44.1757 20.3478 45.0262 19.8243C45.5496 19.4972 45.7459 18.9738 45.7459 18.3849C45.8113 17.5998 45.7459 16.8147 45.6151 16.095C45.4188 15.179 45.1571 14.3285 44.6991 13.5434C44.1757 14.1976 43.3251 15.8987 42.998 16.8147C42.7363 17.469 42.6054 18.1232 42.8017 18.7775ZM36.7824 17.3381C37.2404 17.8615 37.6984 18.3849 38.2218 18.8429C39.0724 19.5626 39.9883 19.9552 41.1006 19.8243C41.624 19.7589 42.2129 19.3663 42.3437 18.9084C42.54 18.1887 42.1474 17.469 41.3623 17.2073C40.708 17.011 40.0538 16.9456 39.3995 16.9456C38.4835 16.9456 37.5676 17.0764 36.5862 17.1418C36.717 17.2073 36.717 17.2727 36.7824 17.3381ZM34.4271 10.0757C33.0531 9.68317 31.6791 9.68317 30.2397 9.68317C30.3052 9.81403 30.3052 9.87945 30.3706 10.0103C30.7632 10.6646 31.2212 11.3188 31.81 11.8423C32.5951 12.562 33.4457 12.9545 34.4925 12.8891C35.0159 12.8237 35.4085 12.6274 35.6702 12.104C35.9319 11.646 35.801 11.188 35.5393 10.73C35.2776 10.3374 34.8851 10.2066 34.4271 10.0757ZM38.4181 13.8051C37.8293 13.5434 37.2404 13.4125 36.6516 13.3471C35.6047 13.2162 34.6233 13.2817 33.5765 13.3471C33.5765 13.4125 33.6419 13.4779 33.6419 13.5434C34.0345 14.1976 34.4925 14.7865 35.0813 15.3099C35.8665 16.0296 36.7824 16.4876 37.8293 16.3567C38.2873 16.2913 38.6798 16.1604 38.9415 15.7679C39.4649 15.0482 39.2032 14.1322 38.4181 13.8051ZM53.728 23.4228C53.7934 23.9462 54.1206 24.3388 54.5785 24.5351C55.102 24.7314 55.5599 24.6005 55.8871 24.2079C56.1488 23.9462 56.3451 23.5537 56.4759 23.2265C56.9993 22.0489 57.1302 20.8057 57.0648 19.5626C57.0648 19.3663 56.9993 19.1701 56.9993 18.9084C55.9525 19.7589 54.9711 20.544 54.2514 21.6563C53.8588 22.1797 53.5971 22.7031 53.728 23.4228ZM38.091 12.7582C38.8761 12.562 39.2032 11.9731 39.1378 11.3188C39.0724 10.272 38.8107 9.29061 38.2872 8.44006C38.0255 7.98208 37.6984 7.52409 37.3713 7.0661C37.3713 7.0661 37.3058 7.0661 37.3058 7.13153C37.2404 7.19695 37.2404 7.32781 37.175 7.39323C36.8479 8.30921 36.5207 9.29061 36.3899 10.272C36.3244 10.7954 36.3244 11.3188 36.5207 11.8423C36.7824 12.4311 37.5021 12.8891 38.091 12.7582ZM33.4457 9.09433C34.2308 9.81403 35.4085 9.48689 35.6702 8.44006C35.801 8.0475 35.6702 7.58952 35.4739 7.26238C35.0159 6.21555 34.2962 5.365 33.4457 4.64531C33.184 4.44903 32.9222 4.25275 32.5951 3.99104C32.5297 5.29958 32.4643 6.47726 32.726 7.65494C32.9222 8.17836 33.0531 8.70177 33.4457 9.09433ZM52.5503 20.7403C51.438 20.086 50.1295 19.7589 48.8864 19.4972C48.8864 19.5626 48.8864 19.6281 48.8864 19.6935C49.2135 20.6749 49.6061 21.6563 50.3258 22.376C50.8492 22.9648 51.5035 23.292 52.354 23.292C53.1391 23.292 53.728 22.5068 53.4663 21.7217C53.3354 21.2637 53.0083 21.002 52.5503 20.7403ZM49.4752 12.8891C48.363 11.9077 47.0544 11.4497 45.6805 10.9917C45.6805 11.0571 45.6805 11.1226 45.6805 11.188C45.8768 12.1694 46.1385 13.0854 46.6619 13.8705C47.0544 14.4593 47.5779 14.9173 48.2976 15.1136C49.1481 15.3753 49.8678 14.9827 49.9987 14.1976C50.1295 13.6088 49.8678 13.2162 49.4752 12.8891ZM50.9801 16.7493C50.1295 16.1604 49.1481 15.8333 48.1667 15.5062C47.905 15.4407 47.6433 15.3753 47.3816 15.3099C47.5779 16.3567 47.905 17.3381 48.5593 18.1232C49.0827 18.8429 49.8024 19.3009 50.7183 19.3009C51.5035 19.3009 52.0269 18.5812 51.8306 17.7961C51.6997 17.2727 51.3726 17.011 50.9801 16.7493ZM41.4277 15.9642C42.0166 15.8333 42.3437 15.3099 42.3437 14.6556C42.3437 13.7396 42.1474 12.8891 41.8203 12.0385C41.5586 11.4497 41.2969 10.9263 40.9043 10.4029C40.9043 10.4683 40.8389 10.4683 40.8389 10.5337C40.3809 11.5806 39.9229 12.6928 39.7921 13.8051C39.7266 14.3285 39.7266 14.8519 39.9883 15.3099C40.2501 15.8333 40.9043 16.1604 41.4277 15.9642ZM49.7369 12.1694C50.4566 12.2348 51.0455 11.646 51.0455 10.8609C51.0455 9.87946 50.7838 8.89805 50.3258 8.0475C50.1295 7.58951 49.8678 7.19695 49.6061 6.80439C49.5407 6.80439 49.5407 6.80439 49.4752 6.80439C49.2135 7.58952 48.8864 8.30921 48.6901 9.09433C48.4938 9.68317 48.4284 10.3374 48.5593 10.9917C48.6247 11.646 49.1481 12.1694 49.7369 12.1694ZM52.0923 16.095C52.6157 15.8987 52.8774 15.5062 53.0083 15.0482C53.27 14.1322 53.27 13.1508 53.0737 12.2348C53.0083 11.7768 52.8774 11.3843 52.7466 10.8609C52.6812 10.9263 52.6157 10.9263 52.6157 10.9263C52.0269 11.5806 51.5035 12.3002 51.0455 13.0854C50.7183 13.6742 50.4566 14.2631 50.5221 14.9173C50.5221 15.7679 51.3726 16.3567 52.0923 16.095ZM43.7831 26.9559C44.2411 27.2176 44.7645 27.283 45.2879 27.2176C46.073 27.0867 46.531 26.3016 46.2039 25.6473C46.0076 25.1893 45.5496 24.9931 45.0916 24.8622C44.3719 24.6005 43.6523 24.5351 42.9326 24.4696C42.4746 24.4696 42.082 24.4696 41.5586 24.4696C42.082 25.5165 42.7363 26.4325 43.7831 26.9559ZM27.1647 6.54269C27.4918 7.13153 27.9498 7.52409 28.4078 7.91665C29.1929 8.57092 29.978 8.96348 31.0249 8.83263C31.6137 8.7672 32.0717 8.37464 32.1371 7.85122C32.2026 7.32781 31.9408 6.80439 31.4174 6.60811C31.0249 6.47726 30.6323 6.41183 30.2397 6.34641C29.2583 6.28098 28.2769 6.41183 27.1647 6.54269ZM52.354 18.9084C52.354 19.6935 53.27 20.2823 53.9243 20.0206C54.3823 19.8243 54.5785 19.4972 54.7094 19.0392C54.8402 18.5812 54.9057 18.1232 54.9711 17.6653C55.1019 16.7493 54.9711 15.8987 54.7094 14.9827C53.8588 15.7679 53.2046 16.6184 52.6812 17.5998C52.4849 17.9924 52.354 18.3849 52.354 18.9084ZM28.9966 5.29958C29.5201 6.01927 30.6323 6.0847 31.0249 5.29958C31.2866 4.84159 31.2211 4.44903 30.9594 4.05647C30.3706 3.07506 29.5855 2.28994 28.6041 1.7011C28.4732 1.63567 28.2769 1.50482 28.0807 1.43939C28.0807 1.50482 28.0807 1.57024 28.0807 1.57024C28.1461 2.28994 28.2115 2.94421 28.3424 3.6639C28.4732 4.25275 28.6695 4.77616 28.9966 5.29958ZM46.2039 19.7589C46.1385 19.7589 46.1385 19.7589 46.073 19.7589C45.4188 20.4786 44.8954 21.2637 44.5028 22.1143C44.3065 22.5723 44.1102 23.0303 44.1757 23.5537C44.2411 24.0771 44.6337 24.5351 45.0916 24.6005C45.6805 24.6659 46.1385 24.4042 46.3348 23.8808C46.4656 23.5537 46.531 23.1611 46.531 22.7685C46.531 22.3106 46.531 21.7871 46.4656 21.3292C46.531 20.8057 46.3348 20.2823 46.2039 19.7589ZM54.1205 29.3112C53.6626 28.7878 53.0737 28.4607 52.4849 28.199C51.9615 27.9373 51.438 27.741 50.8492 27.4793C50.8492 27.6101 50.8492 27.6756 50.8492 27.741C50.9801 28.5261 51.1763 29.2458 51.5689 29.9001C51.896 30.4235 52.354 30.8815 53.0083 31.0778C53.5317 31.274 54.0551 31.1432 54.3168 30.6852C54.5785 30.2272 54.5131 29.7692 54.1205 29.3112ZM47.2507 8.37464C46.2693 7.7858 45.1571 7.52409 44.0448 7.26238C44.0448 7.32781 44.0448 7.32781 44.0448 7.32781C44.0448 7.39323 44.0448 7.39323 44.0448 7.45866C44.3065 7.98208 44.5028 8.57092 44.7645 9.09433C45.2225 9.81403 45.8113 10.3374 46.7273 10.5337C47.1853 10.5992 47.6433 10.4029 47.8396 10.0757C48.0359 9.7486 48.0358 9.22519 47.7741 8.89805C47.6433 8.70177 47.447 8.50549 47.2507 8.37464ZM55.2982 28.5261C55.6908 28.0681 55.9525 27.4793 56.0833 26.8904C56.2796 26.2362 56.4105 25.5819 56.3451 24.7968C55.3637 25.3856 54.3823 25.9745 53.728 26.9559C53.4663 27.283 53.4008 27.6756 53.4663 28.0681C53.5971 28.5261 53.8588 28.7878 54.3168 28.8532C54.7094 28.9841 55.0365 28.7878 55.2982 28.5261ZM47.3162 7.65494C47.8396 7.52409 48.2321 7.00067 48.1013 6.34641C48.0358 5.82299 47.8396 5.365 47.6433 4.84159C47.3816 4.18732 46.989 3.59848 46.4002 3.07506C46.3348 3.20592 46.3347 3.27134 46.2693 3.33677C46.1385 3.79476 46.0076 4.31817 45.8768 4.84159C45.7459 5.43043 45.6805 6.0847 45.8768 6.73897C46.1385 7.39323 46.6619 7.72037 47.3162 7.65494ZM60.4015 36.2465C59.8127 36.9007 60.0744 37.8822 60.8595 38.013C61.1866 38.0784 61.5138 37.9476 61.7755 37.7513C62.626 37.1625 63.2149 36.3773 63.6729 35.4614C63.7383 35.3305 63.8037 35.1342 63.8691 34.9379C62.9532 35.0688 62.168 35.2651 61.3829 35.5922C60.9904 35.7231 60.6632 35.9848 60.4015 36.2465ZM24.0896 3.72933V3.79476C24.2859 3.99104 24.4168 4.25275 24.613 4.44903C25.3327 5.23415 26.1179 5.82299 27.2301 5.69214C27.7535 5.62671 28.1461 5.29958 28.2115 4.84159C28.2769 4.51445 28.0807 3.99104 27.5572 3.79476C27.0338 3.59848 26.5104 3.59848 25.987 3.59848C25.3327 3.59848 24.7439 3.6639 24.0896 3.72933ZM40.3155 20.8057C40.1846 20.8057 39.9883 20.8057 39.7921 20.8712C40.1192 21.5254 40.9043 22.376 41.624 22.7031C42.082 22.9648 42.54 23.0303 43.0634 22.9648C43.6522 22.834 43.9794 22.3106 43.8485 21.7217C43.7177 21.3292 43.3905 21.1329 42.998 21.002C42.1474 20.6749 41.2315 20.7403 40.3155 20.8057ZM59.551 29.3112C59.7473 29.5729 60.0744 29.7038 60.4015 29.6384C60.9904 29.5729 61.3829 28.9841 61.1866 28.3953C60.8595 27.283 60.0744 26.4979 59.2893 25.5819C59.0276 26.3016 58.8967 27.0213 58.8967 27.741C58.9621 28.3953 59.1584 28.9187 59.551 29.3112ZM58.8967 35.9193C59.2238 36.1811 59.551 36.3119 59.9435 36.1811C60.467 35.9848 60.7287 35.4614 60.467 34.8725C60.009 33.8257 59.1584 33.106 58.3079 32.3863C58.177 33.0406 58.0462 33.6948 58.177 34.2837C58.2424 34.9379 58.4387 35.5268 58.8967 35.9193ZM59.9435 33.0406C60.6632 33.106 61.1212 32.4517 60.9249 31.7975C60.5324 30.6852 59.7473 29.9001 58.9621 29.115C58.9621 29.1804 58.8967 29.1804 58.8967 29.2458C58.7004 29.8346 58.635 30.4235 58.635 31.0778C58.635 31.5357 58.7659 31.9937 59.0276 32.3863C59.2238 32.7134 59.4855 32.9751 59.9435 33.0406ZM25.3982 2.87878C25.987 3.33677 26.8375 3.14049 27.0338 2.42079C27.1647 1.96281 26.9684 1.57024 26.5758 1.30854C25.7907 0.588842 24.8747 0.196281 23.6971 0C23.8279 0.392561 23.9588 0.719696 24.155 1.11226C24.4822 1.76653 24.8093 2.35537 25.3982 2.87878ZM61.7101 25.7782C61.3829 26.1707 61.1212 26.4979 61.0558 27.0213C60.9904 27.6756 61.5792 28.2644 62.2335 28.0681C62.626 27.9373 62.8223 27.6101 63.0186 27.283C63.2803 26.6942 63.4112 26.0399 63.4112 25.451C63.4112 25.1239 63.4112 24.7968 63.3457 24.3388C62.7569 24.7314 62.168 25.1893 61.7101 25.7782ZM42.8017 5.43043C43.1288 6.01927 43.6522 6.47726 44.3719 6.54269C44.7645 6.60811 45.0916 6.47726 45.2879 6.21555C45.5496 5.88842 45.5496 5.49586 45.2879 5.23415C45.0916 4.97244 44.7645 4.71073 44.4374 4.57988C43.7177 4.18732 42.9326 3.99104 42.082 3.86018C42.082 3.92561 42.082 3.99104 42.082 4.05647C42.4091 4.51445 42.54 4.97244 42.8017 5.43043ZM61.1866 29.7692C60.7287 30.3581 60.9249 31.2086 61.7101 31.3395C62.1026 31.4049 62.4298 31.2086 62.6915 30.9469C63.1495 30.4889 63.4766 29.9001 63.6729 29.3112C63.8037 28.9187 63.8691 28.5915 64 28.199L63.9346 28.1335C63.542 28.2644 63.2149 28.3953 62.8223 28.5915C62.2335 28.9187 61.6446 29.1804 61.1866 29.7692ZM50.4566 23.75C50.5875 24.0771 50.6529 24.3388 50.7183 24.6659C50.8492 24.9276 50.9146 25.1893 51.1109 25.451C51.438 25.909 51.7652 26.367 52.354 26.5633C52.6157 26.6942 52.9429 26.6942 53.2046 26.6287C53.7934 26.4325 53.9897 25.5819 53.4663 25.1239C52.8774 24.6005 52.1577 24.3388 51.438 24.0771C51.1109 23.9462 50.7838 23.8808 50.4566 23.75ZM60.9904 32.9751C60.7287 33.3023 60.6632 33.8257 60.9249 34.1528C61.2521 34.6108 61.8409 34.6762 62.2989 34.2182C62.8223 33.6948 63.2149 33.106 63.542 32.3863C63.6729 32.1246 63.7383 31.8629 63.8037 31.5357L63.7383 31.4703C63.3457 31.6012 62.8877 31.7975 62.4952 31.9283C61.9063 32.19 61.3829 32.5171 60.9904 32.9751ZM43.6522 3.59848C43.914 3.92561 44.3719 4.12189 44.7645 3.92561C45.2879 3.72933 45.4842 3.20592 45.2225 2.61707C44.9608 2.09366 44.6337 1.57024 44.1757 1.17768C43.8485 0.915976 43.5214 0.654269 43.1943 0.457988C43.1288 0.457988 43.1288 0.523415 43.0634 0.523415C43.1288 1.11226 43.1288 1.63567 43.1943 2.22451C43.2597 2.6825 43.3905 3.20592 43.6522 3.59848ZM56.803 38.3401C56.7376 38.471 56.7376 38.5364 56.6722 38.6018C56.6068 38.929 56.4759 39.3215 56.4105 39.6487C56.2796 40.3029 56.4105 40.9572 56.8685 41.4806C57.1302 41.8078 57.5882 41.8732 57.9153 41.7423C58.2424 41.5461 58.4387 41.1535 58.3079 40.7609C58.0462 39.7795 57.4573 39.0598 56.803 38.3401ZM60.9904 25.909C61.4483 25.7128 61.6446 25.1893 61.3829 24.6659C60.9904 23.8154 60.2707 23.2265 59.551 22.6377C59.4855 22.7031 59.4856 22.7685 59.4856 22.834C59.4201 23.292 59.3547 23.75 59.4201 24.1425C59.4201 24.6659 59.6164 25.1239 59.9435 25.5165C60.2052 25.909 60.6632 26.0399 60.9904 25.909ZM60.9904 23.3574C60.9904 23.7499 61.3175 24.0771 61.7101 24.0771C62.1026 24.1425 62.4298 23.8808 62.5606 23.4882C62.8877 22.5723 62.8877 21.7217 62.626 20.7403C62.0372 21.3292 61.5138 21.8526 61.1866 22.5723C61.0558 22.7685 60.9904 23.0957 60.9904 23.3574ZM58.635 39.1907C58.2424 39.4524 58.1116 39.9104 58.3733 40.3029C58.5696 40.6955 59.0276 40.8264 59.4201 40.6301C60.2707 40.1721 60.9249 39.5178 61.3829 38.6018C60.8595 38.6673 60.4015 38.6673 60.009 38.7327C59.4855 38.7981 59.0276 38.8636 58.635 39.1907ZM60.2052 22.376C60.7287 22.7031 61.2521 22.2451 61.1866 21.7871C61.1866 21.5909 61.1212 21.46 61.0558 21.3292C60.7287 20.6749 60.1398 20.2169 59.551 19.6935C59.3547 20.4786 59.2893 21.1983 59.7473 21.918C59.8127 22.1143 60.009 22.2451 60.2052 22.376ZM59.2238 38.3401C59.4201 38.0784 59.4201 37.7513 59.2238 37.4896C58.8967 36.8353 58.3733 36.3119 57.7845 35.7231C57.719 36.0502 57.6536 36.3773 57.5882 36.639C57.5227 37.2279 57.6536 37.8167 58.0462 38.2747C58.4387 38.6673 58.9621 38.7327 59.2238 38.3401ZM61.1866 20.7403C61.5792 20.8057 61.9063 20.6095 61.9718 20.2169C62.0372 19.9552 62.0372 19.6281 61.9718 19.3009C61.9063 18.7775 61.7101 18.3195 61.3829 17.7961C60.9904 18.5158 60.5978 19.2355 60.6632 20.0206C60.6632 20.3478 60.9249 20.6749 61.1866 20.7403Z" fill="#E9B412" fill-opacity="0.2"/>
</svg>
