<svg width="18" height="21" viewBox="0 0 18 21" fill="none" xmlns="http://www.w3.org/2000/svg">
<path d="M16.3952 6.12142V15.5615C16.3952 19.3376 15.4512 20.2816 11.6751 20.2816H6.01107C2.23503 20.2816 1.29102 19.3376 1.29102 15.5615V6.12142C1.29102 2.34538 2.23503 1.40137 6.01107 1.40137H11.6751C15.4512 1.40137 16.3952 2.34538 16.3952 6.12142Z" stroke="#080808" stroke-width="1.41602" stroke-linecap="round" stroke-linejoin="round"/>
<path d="M10.7301 4.70557H6.9541" stroke="#080808" stroke-width="1.41602" stroke-linecap="round" stroke-linejoin="round"/>
<path d="M8.8431 17.5436C9.65121 17.5436 10.3063 16.8885 10.3063 16.0804C10.3063 15.2723 9.65121 14.6172 8.8431 14.6172C8.03499 14.6172 7.37988 15.2723 7.37988 16.0804C7.37988 16.8885 8.03499 17.5436 8.8431 17.5436Z" stroke="#080808" stroke-width="1.41602" stroke-linecap="round" stroke-linejoin="round"/>
</svg>
