<svg width="22" height="24" viewBox="0 0 22 24" fill="none" xmlns="http://www.w3.org/2000/svg">
<path d="M7.50236 20.7502H17.5024C20.5024 20.7502 21.5024 17.9592 21.5024 15.7502C21.4887 14.923 21.3042 14.1076 20.9604 13.3552C20.9143 13.2501 20.8335 13.164 20.7315 13.1114C20.6295 13.0588 20.5125 13.0429 20.4002 13.0664C20.2878 13.0898 20.187 13.1512 20.1145 13.2402C20.0421 13.3292 20.0025 13.4404 20.0024 13.5552V14.2482C20.0024 15.2482 19.5024 15.7482 17.5024 15.7482H7.50236V13.2482C7.50236 12.9732 7.35136 12.9152 7.16636 13.1182L2.83836 17.8782C2.74896 17.9807 2.69971 18.1122 2.69971 18.2482C2.69971 18.3842 2.74896 18.5157 2.83836 18.6182L7.16636 23.3782C7.35136 23.5782 7.50236 23.5232 7.50236 23.2482V20.7502Z" fill="#09E28B"/>
<path d="M2.70179 18.1981L18.2928 18.2511C19.1532 17.7446 19.8165 16.9614 20.1745 16.0293C20.5325 15.0973 20.564 14.0714 20.2638 13.1191L20.2928 13.1041C20.206 13.1441 20.1324 13.2081 20.0808 13.2885C20.0293 13.369 20.0018 13.4626 20.0018 13.5581V14.2511C20.0018 15.2511 19.5018 15.7511 17.5018 15.7511H7.50179V13.2511C7.50179 12.9761 7.35079 12.9181 7.16579 13.1211L2.83779 17.8811C2.74664 17.9842 2.6974 18.1176 2.69979 18.2551C2.69946 18.2361 2.70013 18.2171 2.70179 18.1981Z" fill="#B6FBDF"/>
<path d="M14.5005 3.74971H4.50049C1.50049 3.74971 0.500488 6.54071 0.500488 8.74971C0.513598 9.57854 0.698136 10.3957 1.04249 11.1497C1.08853 11.2548 1.16933 11.3409 1.27133 11.3935C1.37334 11.4461 1.49033 11.462 1.60267 11.4386C1.71501 11.4151 1.81587 11.3537 1.8883 11.2647C1.96074 11.1757 2.00035 11.0645 2.00049 10.9497V10.2557C2.00049 9.25571 2.50049 8.75571 4.50049 8.75571H14.5005V11.2557C14.5005 11.5307 14.6515 11.5897 14.8365 11.3857L19.1645 6.62571C19.2539 6.52318 19.3031 6.39174 19.3031 6.25571C19.3031 6.11967 19.2539 5.98824 19.1645 5.88571L14.8365 1.12571C14.6515 0.925707 14.5005 0.980707 14.5005 1.25571V3.74971Z" fill="#09E28B"/>
<path d="M3.70949 6.24985L19.3005 6.30385C19.3083 6.22761 19.3003 6.15058 19.2769 6.07761C19.2535 6.00464 19.2152 5.9373 19.1645 5.87985L14.8365 1.11985C14.6515 0.919848 14.5005 0.974848 14.5005 1.24985V3.74985H4.50049C1.50049 3.74985 0.500488 6.54085 0.500488 8.74985C0.513425 9.5787 0.697971 10.3959 1.04249 11.1498C1.0887 11.255 1.1697 11.341 1.27186 11.3934C1.37402 11.4459 1.49113 11.4616 1.60349 11.4378C1.65072 11.428 1.69621 11.4111 1.73849 11.3878C1.43718 10.4348 1.46805 9.40766 1.82606 8.47439C2.18408 7.54113 2.84806 6.75689 3.70949 6.24985Z" fill="#B6FBDF"/>
<path d="M14.5005 3.74971H4.50049C1.50049 3.74971 0.500488 6.54071 0.500488 8.74971C0.513598 9.57854 0.698136 10.3957 1.04249 11.1497C1.08853 11.2548 1.16933 11.3409 1.27133 11.3935C1.37334 11.4461 1.49033 11.462 1.60267 11.4386C1.71501 11.4151 1.81587 11.3537 1.8883 11.2647C1.96074 11.1757 2.00035 11.0645 2.00049 10.9497V10.2557C2.00049 9.25571 2.50049 8.75571 4.50049 8.75571H14.5005V11.2557C14.5005 11.5307 14.6515 11.5897 14.8365 11.3857L19.1645 6.62571C19.2539 6.52318 19.3031 6.39174 19.3031 6.25571C19.3031 6.11967 19.2539 5.98824 19.1645 5.88571L14.8365 1.12571C14.6515 0.925707 14.5005 0.980707 14.5005 1.25571V3.74971Z" stroke="#018A53" stroke-width="0.697281" stroke-linecap="round" stroke-linejoin="round"/>
<path d="M7.50236 20.7502H17.5024C20.5024 20.7502 21.5024 17.9592 21.5024 15.7502C21.4887 14.923 21.3042 14.1076 20.9604 13.3552C20.9143 13.2501 20.8335 13.164 20.7315 13.1114C20.6295 13.0588 20.5125 13.0429 20.4002 13.0664C20.2878 13.0898 20.187 13.1512 20.1145 13.2402C20.0421 13.3292 20.0025 13.4404 20.0024 13.5552V14.2482C20.0024 15.2482 19.5024 15.7482 17.5024 15.7482H7.50236V13.2482C7.50236 12.9732 7.35136 12.9152 7.16636 13.1182L2.83836 17.8782C2.74896 17.9807 2.69971 18.1122 2.69971 18.2482C2.69971 18.3842 2.74896 18.5157 2.83836 18.6182L7.16636 23.3782C7.35136 23.5782 7.50236 23.5232 7.50236 23.2482V20.7502Z" stroke="#018A53" stroke-width="0.697281" stroke-linecap="round" stroke-linejoin="round"/>
</svg>
