<svg width="30" height="30" viewBox="0 0 30 30" fill="none" xmlns="http://www.w3.org/2000/svg">
<rect width="30" height="30" rx="15" fill="#E2FD5D" fill-opacity="0.2"/>
<path fill-rule="evenodd" clip-rule="evenodd" d="M22.3712 11.2887C22.3227 11.2859 22.2709 11.2847 22.2161 11.2853H20.0518C18.2792 11.2853 16.7629 12.6807 16.7629 14.4996C16.7629 16.3184 18.2801 17.7139 20.0518 17.7139H22.2161C22.2709 17.7144 22.3229 17.7133 22.3721 17.7104C22.7364 17.6885 23.0803 17.5348 23.3397 17.2781C23.5991 17.0214 23.7563 16.6791 23.7821 16.315C23.7855 16.2636 23.7855 16.2079 23.7855 16.1564V12.8427C23.7855 12.7913 23.7855 12.7356 23.7821 12.6842C23.7563 12.3201 23.5991 11.9778 23.3397 11.7211C23.0803 11.4644 22.7355 11.3107 22.3712 11.2887ZM19.8624 15.3567C20.3184 15.3567 20.6878 14.9727 20.6878 14.4996C20.6878 14.0264 20.3184 13.6424 19.8624 13.6424C19.4055 13.6424 19.0361 14.0264 19.0361 14.4996C19.0361 14.9727 19.4055 15.3567 19.8624 15.3567Z" fill="#98B700"/>
<path fill-rule="evenodd" clip-rule="evenodd" d="M22.2154 19C22.2451 18.9988 22.2746 19.0046 22.3015 19.017C22.3285 19.0293 22.3522 19.0479 22.3706 19.0711C22.3891 19.0943 22.4018 19.1215 22.4077 19.1506C22.4137 19.1796 22.4127 19.2097 22.4049 19.2383C22.2334 19.8486 21.96 20.3697 21.522 20.8069C20.88 21.4497 20.0666 21.7334 19.062 21.8689C18.0849 22 16.8377 22 15.2623 22H13.452C11.8766 22 10.6286 22 9.65229 21.8689C8.64771 21.7334 7.83429 21.4489 7.19229 20.8077C6.55114 20.1657 6.26657 19.3523 6.13114 18.3477C6 17.3706 6 16.1234 6 14.548V14.452C6 12.8766 6 11.6286 6.13114 10.6514C6.26657 9.64686 6.55114 8.83343 7.19229 8.19143C7.83429 7.55029 8.64771 7.26571 9.65229 7.13029C10.6294 7 11.8766 7 13.452 7H15.2623C16.8377 7 18.0857 7 19.062 7.13114C20.0666 7.26657 20.88 7.55114 21.522 8.19229C21.96 8.63114 22.2334 9.15143 22.4049 9.76171C22.4127 9.79032 22.4137 9.82036 22.4077 9.84942C22.4018 9.87847 22.3891 9.90571 22.3706 9.92893C22.3522 9.95214 22.3285 9.97068 22.3015 9.98303C22.2746 9.99537 22.2451 10.0012 22.2154 10H20.052C17.6203 10 15.4774 11.92 15.4774 14.5C15.4774 17.08 17.6203 19 20.052 19H22.2154ZM9.21429 10.4286C9.04379 10.4286 8.88028 10.4963 8.75972 10.6169C8.63916 10.7374 8.57143 10.9009 8.57143 11.0714C8.57143 11.2419 8.63916 11.4054 8.75972 11.526C8.88028 11.6466 9.04379 11.7143 9.21429 11.7143H12.6429C12.8134 11.7143 12.9769 11.6466 13.0974 11.526C13.218 11.4054 13.2857 11.2419 13.2857 11.0714C13.2857 10.9009 13.218 10.7374 13.0974 10.6169C12.9769 10.4963 12.8134 10.4286 12.6429 10.4286H9.21429Z" fill="#98B700"/>
</svg>
