<svg width="16" height="16" viewBox="0 0 16 16" fill="none" xmlns="http://www.w3.org/2000/svg">
<path fill-rule="evenodd" clip-rule="evenodd" d="M9.39885 1.59374C10.4132 0.579432 12.0577 0.579432 13.072 1.59374C14.0863 2.60804 14.0863 4.25255 13.072 5.26686L8.00929 10.3295C7.72396 10.6149 7.54971 10.7892 7.35549 10.9407C7.12667 11.1191 6.87909 11.2721 6.61713 11.397C6.39478 11.503 6.16098 11.5809 5.77814 11.7085L3.99637 12.3024L3.56859 12.445C3.18569 12.5726 2.76354 12.473 2.47815 12.1876C2.19275 11.9022 2.09309 11.48 2.22073 11.0971L2.95724 8.88757C3.08483 8.50473 3.16275 8.27092 3.26872 8.04858C3.39356 7.78661 3.54658 7.53903 3.72505 7.31021C3.87654 7.11599 4.05081 6.94174 4.33618 6.6564L9.39885 1.59374ZM3.9733 11.256L3.40972 10.6924L3.89534 9.23556C4.03672 8.8114 4.09512 8.63893 4.17144 8.4788C4.26504 8.2824 4.37976 8.09678 4.51356 7.92523C4.62266 7.78535 4.7508 7.65599 5.06696 7.33984L8.99427 3.41252C9.15638 3.81918 9.43066 4.31 9.89318 4.77252C10.3557 5.23504 10.8465 5.50932 11.2532 5.67143L7.32586 9.59875C7.00971 9.9149 6.88035 10.043 6.74047 10.1521C6.56892 10.2859 6.38331 10.4007 6.18691 10.4943C6.02677 10.5706 5.85431 10.629 5.43015 10.7704L3.9733 11.256ZM12.05 4.87461C11.9674 4.85649 11.8642 4.82922 11.7469 4.78851C11.4242 4.67655 10.9997 4.46486 10.6003 4.06541C10.2008 3.66597 9.98915 3.24151 9.8772 2.91883C9.83648 2.80148 9.80922 2.69826 9.79109 2.6157L10.106 2.30084C10.7297 1.67706 11.7411 1.67706 12.3649 2.30084C12.9886 2.92462 12.9886 3.93597 12.3649 4.55975L12.05 4.87461ZM2.16603 14.6663C2.16603 14.3902 2.38989 14.1663 2.66603 14.1663H13.3327V15.1663H2.66603C2.38989 15.1663 2.16603 14.9425 2.16603 14.6663Z" fill="black"/>
</svg>
