<svg width="30" height="30" viewBox="0 0 30 30" fill="none" xmlns="http://www.w3.org/2000/svg">
<rect width="30" height="30" rx="15" fill="#FFB59F" fill-opacity="0.2"/>
<path d="M14.5 17.8333C14.0417 17.8333 13.6494 17.6703 13.3233 17.3442C12.9972 17.0181 12.8339 16.6256 12.8333 16.1667C12.8328 15.7078 12.9961 15.3156 13.3233 14.99C13.6506 14.6644 14.0428 14.5011 14.5 14.5C14.9572 14.4989 15.3497 14.6622 15.6775 14.99C16.0053 15.3178 16.1683 15.71 16.1667 16.1667C16.165 16.6233 16.0019 17.0158 15.6775 17.3442C15.3531 17.6725 14.9606 17.8356 14.5 17.8333ZM10.6458 10.3333H18.3542L20.0208 7H8.97917L10.6458 10.3333ZM11.5 22H17.5C18.75 22 19.8125 21.5661 20.6875 20.6983C21.5625 19.8306 22 18.7644 22 17.5C22 16.9722 21.9097 16.4583 21.7292 15.9583C21.5486 15.4583 21.2917 15.0069 20.9583 14.6042L18.7917 12H10.2083L8.04167 14.6042C7.70833 15.0069 7.45139 15.4583 7.27083 15.9583C7.09028 16.4583 7 16.9722 7 17.5C7 18.7639 7.43417 19.83 8.3025 20.6983C9.17083 21.5667 10.2367 22.0006 11.5 22Z" fill="#FF4C17"/>
</svg>
