<svg width="24" height="24" viewBox="0 0 24 24" fill="none" xmlns="http://www.w3.org/2000/svg">
<path fill-rule="evenodd" clip-rule="evenodd" d="M10.6936 1H12.8064C14.6442 0.999984 16.0998 0.999972 17.239 1.15314C18.4114 1.31076 19.3604 1.64288 20.1088 2.39124C20.4016 2.68414 20.4016 3.15901 20.1088 3.4519C19.8159 3.7448 19.341 3.7448 19.0481 3.4519C18.6249 3.02869 18.0452 2.77502 17.0392 2.63976C16.0115 2.50159 14.6568 2.5 12.75 2.5H10.75C8.84318 2.5 7.48851 2.50159 6.46085 2.63976C5.45476 2.77502 4.87511 3.02869 4.4519 3.4519C4.02869 3.87511 3.77502 4.45476 3.63976 5.46085C3.50159 6.48851 3.5 7.84318 3.5 9.75V13.75C3.5 15.6568 3.50159 17.0115 3.63976 18.0392C3.77502 19.0452 4.02869 19.6249 4.4519 20.0481C4.87511 20.4713 5.45476 20.725 6.46085 20.8602C7.48851 20.9984 8.84318 21 10.75 21H12.75C14.6568 21 16.0115 20.9984 17.0392 20.8602C18.0452 20.725 18.6249 20.4713 19.0481 20.0481C19.744 19.3522 19.9548 18.2708 19.9914 15.7392C19.9974 15.325 20.338 14.9941 20.7522 15.0001C21.1663 15.0061 21.4972 15.3467 21.4912 15.7608C21.4561 18.1883 21.299 19.9185 20.1088 21.1088C19.3604 21.8571 18.4114 22.1892 17.239 22.3469C16.0998 22.5 14.6442 22.5 12.8064 22.5H10.6936C8.85583 22.5 7.40019 22.5 6.26098 22.3469C5.08856 22.1892 4.13961 21.8571 3.39124 21.1088C2.64288 20.3604 2.31076 19.4114 2.15314 18.239C1.99997 17.0998 1.99998 15.6442 2 13.8064V9.69358C1.99998 7.85582 1.99997 6.40019 2.15314 5.26098C2.31076 4.08856 2.64288 3.13961 3.39124 2.39124C4.13961 1.64288 5.08856 1.31076 6.26098 1.15314C7.40019 0.999972 8.85582 0.999984 10.6936 1ZM17.8631 6.79556C18.9239 5.73481 20.6437 5.73481 21.7044 6.79556C22.7652 7.8563 22.7652 9.57611 21.7044 10.6369L16.9491 15.3922C16.6904 15.651 16.5154 15.826 16.3193 15.9789C16.0887 16.1588 15.8392 16.313 15.5752 16.4389C15.3507 16.5458 15.1159 16.6241 14.7687 16.7397L12.6851 17.4343C12.2251 17.5876 11.7179 17.4679 11.375 17.125C11.0321 16.7821 10.9124 16.2749 11.0657 15.8149L11.7463 13.7732C11.751 13.7591 11.7556 13.7451 11.7602 13.7313C11.8759 13.3842 11.9542 13.1493 12.0611 12.9248C12.187 12.6608 12.3412 12.4113 12.5211 12.1807C12.674 11.9846 12.849 11.8096 13.1078 11.5509C13.1181 11.5406 13.1285 11.5302 13.1391 11.5196L17.8631 6.79556ZM20.6438 7.85622C20.1688 7.38126 19.3988 7.38126 18.9238 7.85622L18.742 8.038C18.7519 8.07149 18.7632 8.1071 18.7762 8.14452C18.8702 8.41565 19.0488 8.77427 19.3872 9.11276C19.7257 9.45125 20.0843 9.62975 20.3555 9.72382C20.3929 9.7368 20.4285 9.74812 20.462 9.75798L20.6438 9.5762C21.1187 9.10124 21.1187 8.33118 20.6438 7.85622ZM19.3164 10.9036C18.9985 10.7366 18.6553 10.5021 18.3266 10.1734C17.9979 9.8447 17.7634 9.50146 17.5964 9.18357L14.1997 12.5803C13.8987 12.8814 13.793 12.9888 13.7038 13.1032C13.591 13.2479 13.4942 13.4045 13.4152 13.5702C13.3528 13.7011 13.3039 13.8436 13.1693 14.2476L12.769 15.4485L13.0515 15.731L14.2524 15.3307C14.6564 15.1961 14.7989 15.1472 14.9298 15.0848C15.0955 15.0058 15.2521 14.909 15.3968 14.7962C15.5112 14.707 15.6186 14.6013 15.9197 14.3003L19.3164 10.9036ZM7 8.75C7 8.33579 7.33579 8 7.75 8H14.25C14.6642 8 15 8.33579 15 8.75C15 9.16421 14.6642 9.5 14.25 9.5H7.75C7.33579 9.5 7 9.16421 7 8.75ZM7 12.75C7 12.3358 7.33579 12 7.75 12H10.25C10.6642 12 11 12.3358 11 12.75C11 13.1642 10.6642 13.5 10.25 13.5H7.75C7.33579 13.5 7 13.1642 7 12.75ZM7 16.75C7 16.3358 7.33579 16 7.75 16H9.25C9.66421 16 10 16.3358 10 16.75C10 17.1642 9.66421 17.5 9.25 17.5H7.75C7.33579 17.5 7 17.1642 7 16.75Z" fill="#080808"/>
</svg>
