<svg width="24" height="24" viewBox="0 0 24 24" fill="none" xmlns="http://www.w3.org/2000/svg">
<path d="M5.49862 11.5C5.22362 11.5 5.15762 11.659 5.35262 11.854L11.6446 18.147C11.6911 18.1937 11.7463 18.2308 11.8072 18.2561C11.868 18.2814 11.9332 18.2944 11.9991 18.2944C12.065 18.2944 12.1302 18.2814 12.1911 18.2561C12.2519 18.2308 12.3072 18.1937 12.3536 18.147L18.6646 11.872C18.8646 11.679 18.7946 11.519 18.5196 11.517L15.4986 11.5V1.5C15.4986 1.23478 15.3933 0.98043 15.2057 0.792893C15.0182 0.605357 14.7638 0.5 14.4986 0.5H9.49862C9.2334 0.5 8.97905 0.605357 8.79151 0.792893C8.60398 0.98043 8.49862 1.23478 8.49862 1.5V11C8.49862 11.1326 8.44594 11.2598 8.35217 11.3536C8.25841 11.4473 8.13123 11.5 7.99862 11.5H5.49862Z" fill="#9FEAFF"/>
<path d="M11.9986 0.5H9.49862C9.2334 0.5 8.97905 0.605357 8.79151 0.792893C8.60398 0.98043 8.49862 1.23478 8.49862 1.5V11C8.49862 11.1326 8.44594 11.2598 8.35217 11.3536C8.25841 11.4473 8.13123 11.5 7.99862 11.5H5.49862C5.22362 11.5 5.15762 11.659 5.35262 11.854L11.6446 18.147C11.6911 18.1936 11.7462 18.2305 11.807 18.2558C11.8677 18.281 11.9328 18.294 11.9986 18.294V0.5Z" fill="#DFF9FF"/>
<path d="M5.49862 11.5C5.22362 11.5 5.15762 11.659 5.35262 11.854L11.6446 18.147C11.6911 18.1937 11.7463 18.2308 11.8072 18.2561C11.868 18.2814 11.9332 18.2944 11.9991 18.2944C12.065 18.2944 12.1302 18.2814 12.1911 18.2561C12.2519 18.2308 12.3072 18.1937 12.3536 18.147L18.6646 11.872C18.8646 11.679 18.7946 11.519 18.5196 11.517L15.4986 11.5V1.5C15.4986 1.23478 15.3933 0.98043 15.2057 0.792893C15.0182 0.605357 14.7638 0.5 14.4986 0.5H9.49862C9.2334 0.5 8.97905 0.605357 8.79151 0.792893C8.60398 0.98043 8.49862 1.23478 8.49862 1.5V11C8.49862 11.1326 8.44594 11.2598 8.35217 11.3536C8.25841 11.4473 8.13123 11.5 7.99862 11.5H5.49862Z" stroke="#00303E" stroke-width="0.697281" stroke-linecap="round" stroke-linejoin="round"/>
<path d="M23.4983 18.5V22.5C23.4983 22.7652 23.3929 23.0196 23.2054 23.2071C23.0179 23.3946 22.7635 23.5 22.4983 23.5H1.49829C1.23307 23.5 0.978721 23.3946 0.791184 23.2071C0.603648 23.0196 0.498291 22.7652 0.498291 22.5V18.5" stroke="#00303E" stroke-width="0.697281" stroke-linecap="round" stroke-linejoin="round"/>
</svg>
