<svg width="24" height="24" viewBox="0 0 24 24" fill="none" xmlns="http://www.w3.org/2000/svg">
<g clip-path="url(#clip0_40000012_35574)">
<path d="M11.5015 13.5084H2.50167C1.49569 13.5084 0.501709 13.0144 0.501709 12.0084L1.40169 2.00861C1.39007 1.7973 1.4265 1.58611 1.50825 1.39091C1.59 1.19571 1.71494 1.02159 1.87368 0.881629C2.01969 0.735953 2.1977 0.626376 2.39352 0.561622C2.58935 0.496868 2.79758 0.478725 3.00166 0.508637H18.0013C18.2053 0.478807 18.4133 0.496993 18.609 0.561747C18.8046 0.626501 18.9825 0.736035 19.1283 0.881629C19.2872 1.02149 19.4124 1.19557 19.4943 1.39078C19.5762 1.58598 19.6128 1.79722 19.6013 2.00861L20.5013 12.0084C20.5013 13.0144 19.5073 13.5084 18.5013 13.5084" fill="#9FEAFF"/>
<path d="M3.00166 0.508824C2.79758 0.478674 2.58927 0.496703 2.39341 0.56147C2.19754 0.626238 2.01956 0.735945 1.87368 0.881817C1.71494 1.02178 1.59 1.1959 1.50825 1.3911C1.4265 1.5863 1.39007 1.79749 1.40169 2.00879L0.501709 12.0086C0.504956 12.293 0.595654 12.5696 0.761489 12.8007C0.927325 13.0319 1.16027 13.2064 1.42869 13.3006L14.2194 0.508824H3.00166Z" fill="#DFF9FF"/>
<path d="M11.5015 13.5084H2.50167C1.49569 13.5084 0.501709 13.0144 0.501709 12.0084L1.40169 2.00861C1.39007 1.7973 1.4265 1.58611 1.50825 1.39091C1.59 1.19571 1.71494 1.02159 1.87368 0.881629C2.01969 0.735953 2.1977 0.626376 2.39352 0.561622C2.58935 0.496868 2.79758 0.478725 3.00166 0.508637H18.0013C18.2053 0.478807 18.4133 0.496993 18.609 0.561747C18.8046 0.626501 18.9825 0.736035 19.1283 0.881629C19.2872 1.02149 19.4124 1.19557 19.4943 1.39078C19.5762 1.58598 19.6128 1.79722 19.6013 2.00861L20.5013 12.0084C20.5013 13.0144 19.5073 13.5084 18.5013 13.5084" stroke="#00303E" stroke-width="0.999979" stroke-linecap="round" stroke-linejoin="round"/>
<path d="M16.5204 21.4999H1.0017C0.869093 21.4999 0.741919 21.4472 0.648153 21.3535C0.554386 21.2597 0.501709 21.1325 0.501709 20.9999V17C0.501709 16.8674 0.554386 16.7402 0.648153 16.6464C0.741919 16.5527 0.869093 16.5 1.0017 16.5H16.5204V21.4999Z" fill="#9FEAFF"/>
<path d="M1.0017 16.5C0.869093 16.5 0.741919 16.5527 0.648153 16.6464C0.554386 16.7402 0.501709 16.8674 0.501709 17V19.9999C0.501709 19.8673 0.554386 19.7401 0.648153 19.6464C0.741919 19.5526 0.869093 19.4999 1.0017 19.4999H16.5204V16.5H1.0017Z" fill="#DFF9FF"/>
<path d="M7.00158 21.4999H1.0017C0.869093 21.4999 0.741919 21.4472 0.648153 21.3535C0.554386 21.2597 0.501709 21.1325 0.501709 20.9999V17C0.501709 16.8674 0.554386 16.7402 0.648153 16.6464C0.741919 16.5527 0.869093 16.5 1.0017 16.5H11.5015" stroke="#00303E" stroke-width="0.999979" stroke-linecap="round" stroke-linejoin="round"/>
<path d="M3.00171 19.4995H7.00163" stroke="#00303E" stroke-width="0.999979" stroke-linecap="round" stroke-linejoin="round"/>
<path d="M10.5015 13.5V16.4999" stroke="#00303E" stroke-width="0.999979" stroke-linecap="round" stroke-linejoin="round"/>
<path d="M11.501 23.4998L9.20108 20.9618C8.97385 20.6541 8.87275 20.2712 8.91847 19.8915C8.96419 19.5117 9.15327 19.1637 9.44704 18.9188C9.74081 18.6738 10.1171 18.5503 10.4989 18.5735C10.8807 18.5968 11.2392 18.765 11.501 19.0439L13.501 21.3308V13.5C13.501 13.1022 13.659 12.7206 13.9403 12.4393C14.2216 12.158 14.6031 12 15.001 12C15.3988 12 15.7803 12.158 16.0616 12.4393C16.3429 12.7206 16.5009 13.1022 16.5009 13.5V17.9999H19.5009C20.5617 17.9999 21.5791 18.4213 22.3292 19.1714C23.0794 19.9216 23.5008 20.9389 23.5008 21.9998V23.4998" fill="#DFF9FF"/>
<path d="M11.501 23.4998L9.20108 20.9618C8.97385 20.6541 8.87275 20.2712 8.91847 19.8915C8.96419 19.5117 9.15327 19.1637 9.44704 18.9188C9.74081 18.6738 10.1171 18.5503 10.4989 18.5735C10.8807 18.5968 11.2392 18.765 11.501 19.0439L13.501 21.3308V13.5C13.501 13.1022 13.659 12.7206 13.9403 12.4393C14.2216 12.158 14.6031 12 15.001 12C15.3988 12 15.7803 12.158 16.0616 12.4393C16.3429 12.7206 16.5009 13.1022 16.5009 13.5V17.9999H19.5009C20.5617 17.9999 21.5791 18.4213 22.3292 19.1714C23.0794 19.9216 23.5008 20.9389 23.5008 21.9998V23.4998" stroke="#00303E" stroke-width="0.999979" stroke-linecap="round" stroke-linejoin="round"/>
<path d="M3.50171 3.50049H5.50167V5.50045H3.50171V3.50049Z" fill="#9FEAFF" stroke="#00303E" stroke-width="0.999979" stroke-linecap="round" stroke-linejoin="round"/>
<path d="M7.50146 3.50049H9.50142V5.50045H7.50146V3.50049Z" fill="#9FEAFF" stroke="#00303E" stroke-width="0.999979" stroke-linecap="round" stroke-linejoin="round"/>
<path d="M3.50171 7.5H5.50167V9.49996H3.50171V7.5Z" fill="#9FEAFF" stroke="#00303E" stroke-width="0.999979" stroke-linecap="round" stroke-linejoin="round"/>
<path d="M7.50146 7.5H9.50142V9.49996H7.50146V7.5Z" fill="#9FEAFF" stroke="#00303E" stroke-width="0.999979" stroke-linecap="round" stroke-linejoin="round"/>
<path d="M15.5015 8.5V9.49998" stroke="#00303E" stroke-width="0.999979" stroke-linecap="round" stroke-linejoin="round"/>
<path d="M15.5015 3.50049V4.50047" stroke="#00303E" stroke-width="0.999979" stroke-linecap="round" stroke-linejoin="round"/>
<path d="M13.5015 8.50041H16.5014C16.7666 8.50041 17.021 8.39505 17.2085 8.20752C17.396 8.01999 17.5014 7.76564 17.5014 7.50043C17.5014 7.23522 17.396 6.98087 17.2085 6.79333C17.021 6.6058 16.7666 6.50045 16.5014 6.50045H14.5014C14.2362 6.50045 13.9819 6.39509 13.7944 6.20756C13.6068 6.02003 13.5015 5.76568 13.5015 5.50047C13.5015 5.23526 13.6068 4.98091 13.7944 4.79338C13.9819 4.60584 14.2362 4.50049 14.5014 4.50049H17.5014" stroke="#00303E" stroke-width="0.999979" stroke-linecap="round" stroke-linejoin="round"/>
</g>
<defs>
<clipPath id="clip0_40000012_35574">
<rect width="23.9995" height="23.9995" fill="white"/>
</clipPath>
</defs>
</svg>
