<svg width="30" height="30" viewBox="0 0 30 30" fill="none" xmlns="http://www.w3.org/2000/svg">
<rect width="30" height="30" rx="15" fill="#F8A259"/>
<path d="M20.0718 19.1702L21.2147 20.3131C21.4379 20.5363 21.7995 20.5363 22.0227 20.3131L23.1656 19.1702C23.3888 18.947 23.3888 18.5854 23.1656 18.3622C22.9424 18.139 22.5808 18.139 22.3576 18.3622L22.1902 18.5296L22.1902 16.4805C22.1902 16.1646 21.9346 15.909 21.6187 15.909C21.3029 15.909 21.0473 16.1646 21.0473 16.4805L21.0473 18.5296L20.8799 18.3622C20.7683 18.2506 20.6221 18.1948 20.4759 18.1948C20.3297 18.1948 20.1835 18.2506 20.0718 18.3622C19.8486 18.5854 19.8486 18.947 20.0718 19.1702Z" fill="#343A46"/>
<path d="M9.45131 16.0737C9.2281 15.8504 8.86649 15.8504 8.64328 16.0737L7.50042 17.2165C7.2772 17.4397 7.2772 17.8013 7.50042 18.0246C7.72363 18.2478 8.08524 18.2478 8.30845 18.0246L8.47587 17.8571V19.9062C8.47587 20.2221 8.73172 20.4777 9.04729 20.4777C9.36286 20.4777 9.61872 20.2221 9.61872 19.9062V17.8571L9.78613 18.0246C9.89774 18.1362 10.0439 18.192 10.1902 18.192C10.3364 18.192 10.4826 18.1362 10.5942 18.0246C10.8174 17.8013 10.8174 17.4397 10.5942 17.2165L9.45131 16.0737Z" fill="#343A46"/>
<path d="M18.1902 7.33594H7.90444C7.58883 7.33594 7.33301 7.59176 7.33301 7.90737V13.6217C7.33301 13.9372 7.58883 14.1931 7.90444 14.1931H9.04729C9.04729 13.2478 9.81627 12.4788 10.7616 12.4788C11.7069 12.4788 12.4759 13.2478 12.4759 14.1931H18.1902C18.5058 14.1931 18.7616 13.9372 18.7616 13.6217V7.90737C18.7616 7.59176 18.5058 7.33594 18.1902 7.33594Z" fill="#343A46"/>
<path d="M19.3325 8.48047H21.8838C22.0749 8.48047 22.2533 8.57596 22.3593 8.73493L23.3325 10.1948H19.3325V8.48047Z" fill="#343A46"/>
<path d="M10.761 15.3365C11.3922 15.3365 11.9039 14.8248 11.9039 14.1936C11.9039 13.5625 11.3922 13.0508 10.761 13.0508C10.1298 13.0508 9.61816 13.5625 9.61816 14.1936C9.61816 14.8248 10.1298 15.3365 10.761 15.3365Z" fill="#343A46"/>
<path d="M19.3325 10.7656V12.9258C19.6365 12.6516 20.0347 12.4799 20.4754 12.4799C21.4207 12.4799 22.1897 13.2489 22.1897 14.1942H22.7611C23.0767 14.1942 23.3325 13.9384 23.3325 13.6228V10.7656H19.3325Z" fill="#343A46"/>
<path d="M20.4754 15.3365C21.1066 15.3365 21.6182 14.8248 21.6182 14.1936C21.6182 13.5625 21.1066 13.0508 20.4754 13.0508C19.8442 13.0508 19.3325 13.5625 19.3325 14.1936C19.3325 14.8248 19.8442 15.3365 20.4754 15.3365Z" fill="#343A46"/>
<path d="M16.3177 19.386C16.4137 19.3218 16.5387 19.3218 16.6347 19.386L17.0476 19.6614V18.1953H15.9048V19.6614L16.3177 19.386Z" fill="#343A46"/>
<path d="M19.3329 18.1953H17.6187V20.1951C17.6187 20.3006 17.5606 20.3974 17.4677 20.4471C17.4256 20.4697 17.3793 20.4809 17.3329 20.4809C17.2774 20.4809 17.2222 20.4647 17.1745 20.4329L16.4758 19.9672L15.7771 20.4329C15.6895 20.4915 15.5765 20.497 15.4839 20.4471C15.391 20.3974 15.3329 20.3006 15.3329 20.1951V18.1953H13.6187V23.3382H18.7615C19.0771 23.3382 19.3329 23.0823 19.3329 22.7667V18.1953Z" fill="#343A46"/>
<path d="M11.3335 16.3047L13.0478 18.019V23.1618L11.5009 21.6149C11.3937 21.5077 11.3335 21.3624 11.3335 21.2109V16.3047Z" fill="#343A46"/>
<path d="M14.1899 15.9062L15.9042 17.6205H17.0471L15.3328 15.9062H14.1899Z" fill="#343A46"/>
<path d="M11.7339 15.9062L13.4482 17.6205H15.3339L13.6196 15.9062H11.7339Z" fill="#343A46"/>
<path d="M17.615 16.0736C17.5078 15.9664 17.3625 15.9062 17.2109 15.9062H15.9048L17.6191 17.6205H19.1619L17.615 16.0736Z" fill="#343A46"/>
</svg>
