<svg width="30" height="30" viewBox="0 0 30 30" fill="none" xmlns="http://www.w3.org/2000/svg">
<circle cx="15" cy="15" r="15" fill="#9FEAFF"/>
<path d="M19.3944 25.3763C17.9366 25.3384 16.5043 24.9851 15.196 24.3408C14.4647 24.0077 13.7859 23.5696 13.1811 23.0404C12.732 22.6616 12.3816 22.1792 12.1601 21.6349C12.0272 21.2848 11.9745 20.9093 12.0059 20.5361C12.0373 20.163 12.1519 19.8016 12.3415 19.4786C12.5317 19.0967 12.7994 18.7586 13.1276 18.486C13.4558 18.2134 13.8372 18.0122 14.2475 17.8953C14.5031 17.8199 14.7718 17.7993 15.0359 17.8349C15.3 17.8706 15.5535 17.9616 15.78 18.1021C16.5247 18.5577 17.3537 18.8581 18.2174 18.9853C19.0284 19.0883 19.8518 19.0303 20.6404 18.8148C21.4272 18.6093 22.1847 18.3046 22.8946 17.908C23.1807 17.7449 23.4975 17.643 23.8249 17.6087C24.1524 17.5743 24.4834 17.6083 24.7971 17.7085C25.2187 17.8152 25.6098 18.0181 25.9399 18.3013C26.27 18.5845 26.53 18.9403 26.6995 19.3407C27.0115 20.0662 26.9171 20.7789 26.5835 21.4699C26.2341 22.1484 25.7489 22.7478 25.158 23.2309C23.8859 24.3364 22.3167 25.0434 20.6458 25.2639C20.2269 25.3183 19.8116 25.3437 19.3944 25.3763ZM19.6284 20.7989C20.5284 20.7901 21.4166 20.5937 22.2363 20.2221C22.3057 20.1886 22.3652 20.1374 22.4088 20.0738C22.4524 20.0102 22.4786 19.9363 22.4848 19.8594C22.5049 19.7822 22.5024 19.7008 22.4777 19.625C22.4529 19.5491 22.4069 19.4819 22.3451 19.4314C22.2878 19.379 22.2166 19.3442 22.14 19.3314C22.0635 19.3185 21.9848 19.3281 21.9135 19.3589C21.2264 19.6389 20.5038 19.822 19.7662 19.9029C19.1938 19.9816 18.6126 19.9712 18.0433 19.8721C17.871 19.8395 17.7024 19.7851 17.5319 19.7542C17.4417 19.7352 17.3476 19.7512 17.2688 19.799C17.1899 19.8469 17.1323 19.9229 17.1075 20.0118C17.064 20.1822 17.1366 20.2929 17.3632 20.3745C18.0926 20.6293 18.8563 20.7724 19.6284 20.7989ZM12.9055 20.5123V20.447C12.9055 20.3128 12.8475 20.233 12.7495 20.2312C12.6516 20.2294 12.5881 20.311 12.5845 20.4416C12.5795 20.8162 12.6707 21.1859 12.8493 21.5152C13.146 22.0562 13.5599 22.5241 14.0607 22.8845C15.0118 23.5862 16.0922 24.0929 17.2399 24.3752C17.3778 24.4115 17.5174 24.4459 17.657 24.4768C17.6774 24.4819 17.6986 24.483 17.7194 24.4799C17.7401 24.4768 17.7601 24.4697 17.7781 24.4589C17.7961 24.4482 17.8119 24.4339 17.8244 24.4171C17.8369 24.4002 17.846 24.3811 17.8511 24.3607C17.8562 24.3403 17.8573 24.3192 17.8542 24.2984C17.8512 24.2776 17.844 24.2577 17.8333 24.2396C17.8225 24.2216 17.8083 24.2059 17.7914 24.1934C17.7745 24.1809 17.7554 24.1718 17.735 24.1667C17.6969 24.154 17.657 24.1485 17.619 24.1395C16.6191 23.9172 15.6622 23.5331 14.7862 23.0023C14.2112 22.6675 13.7117 22.2173 13.319 21.6803C13.0673 21.3411 12.9233 20.9342 12.9055 20.5123ZM19.9186 24.7397V24.718C20.1308 24.718 20.3411 24.718 20.5515 24.718C20.5745 24.7206 20.5979 24.7182 20.6199 24.7109C20.6419 24.7037 20.6621 24.6918 20.6792 24.6761C20.6962 24.6603 20.7096 24.6411 20.7185 24.6197C20.7275 24.5983 20.7317 24.5753 20.7309 24.5521C20.7301 24.5289 20.7243 24.5062 20.714 24.4855C20.7036 24.4647 20.6889 24.4465 20.6708 24.4319C20.6528 24.4174 20.6318 24.4069 20.6093 24.4012C20.5869 24.3954 20.5634 24.3946 20.5406 24.3988H20.4445C20.0147 24.3988 19.5867 24.3861 19.1587 24.377C19.0372 24.377 18.9556 24.426 18.9501 24.5257C18.9447 24.6255 19.0136 24.6926 19.1315 24.7071L19.9186 24.7397Z" fill="#343A46"/>
<path d="M3.72137 14.2438C3.76905 13.5357 4.06962 12.8682 4.5683 12.3632C4.98696 11.8827 5.55581 11.558 6.18238 11.4419C6.63155 11.3607 7.09486 11.4472 7.48453 11.6849C8.18134 12.1086 8.94955 12.4018 9.75149 12.55C10.6818 12.7006 11.6342 12.6386 12.5371 12.3686C13.2804 12.1504 13.997 11.8499 14.6735 11.4727C14.98 11.3097 15.3182 11.215 15.6648 11.1953C16.0114 11.1756 16.3581 11.2312 16.6812 11.3584C16.8815 11.4344 17.076 11.5247 17.2633 11.6287C17.3102 11.6578 17.344 11.704 17.3576 11.7574C17.5779 12.7505 17.9324 13.7091 18.4113 14.6066C18.425 14.6348 18.432 14.6658 18.432 14.6972C18.432 14.7286 18.425 14.7596 18.4113 14.7879C18.1355 15.4408 17.7223 16.0265 17.1998 16.5054C16.771 16.9158 16.3005 17.2805 15.7961 17.5935C15.7771 17.6069 15.7555 17.6161 15.7327 17.6205C15.7098 17.6249 15.6863 17.6243 15.6637 17.6189C15.3304 17.4826 14.9707 17.423 14.6112 17.4447C14.2517 17.4664 13.9017 17.5687 13.5872 17.744C13.1065 17.9903 12.6865 18.3403 12.3576 18.7687C12.3204 18.8137 12.2683 18.844 12.2107 18.8539C10.8606 19.0321 9.48762 18.8956 8.19908 18.455C7.11094 18.108 6.09158 17.5741 5.18673 16.8771C4.67446 16.498 4.25726 16.0051 3.96801 15.4372C3.79124 15.0649 3.70665 14.6556 3.72137 14.2438ZM11.3982 14.3925C12.2572 14.3773 13.1047 14.1924 13.8919 13.8485C13.9761 13.8172 14.0502 13.7635 14.1061 13.6932C14.162 13.6228 14.1977 13.5386 14.2093 13.4495C14.2266 13.3736 14.2222 13.2944 14.1965 13.2209C14.1709 13.1475 14.125 13.0827 14.0642 13.0342C14.0062 12.9823 13.9346 12.9481 13.8578 12.9355C13.781 12.923 13.7022 12.9327 13.6307 12.9635C12.9433 13.2443 12.2199 13.4275 11.4816 13.5075C10.9012 13.5871 10.3118 13.5749 9.73517 13.4713C9.56832 13.4386 9.40329 13.3824 9.23463 13.3552C9.145 13.3374 9.05198 13.3556 8.97565 13.4058C8.89931 13.4561 8.84577 13.5343 8.82657 13.6236C8.78849 13.7832 8.86284 13.8974 9.07322 13.9664C9.82074 14.226 10.6036 14.3697 11.3946 14.3925H11.3982ZM4.62815 14.1024C4.63087 14.0595 4.63087 14.0165 4.62815 13.9736C4.61727 13.8938 4.56468 13.8322 4.48851 13.8394C4.42573 13.853 4.36945 13.8875 4.32891 13.9373C4.30534 13.9609 4.30896 14.0171 4.30896 14.0607C4.30797 14.4279 4.399 14.7895 4.57374 15.1125C4.89564 15.6954 5.34892 16.1953 5.89765 16.5725C6.7292 17.1625 7.6562 17.6048 8.63796 17.88C8.87372 17.949 9.11493 18.007 9.36339 18.0614C9.38495 18.0679 9.40763 18.0699 9.42999 18.0672C9.45236 18.0646 9.47393 18.0573 9.49335 18.0459C9.51277 18.0345 9.52962 18.0192 9.54284 18.0009C9.55605 17.9827 9.56534 17.9619 9.57014 17.9399C9.57702 17.8969 9.56684 17.853 9.54177 17.8174C9.5167 17.7818 9.47872 17.7574 9.43593 17.7495L9.32349 17.7295C8.3856 17.5194 7.48534 17.1671 6.65391 16.6849C6.07028 16.359 5.55441 15.9244 5.13414 15.4045C4.82848 15.037 4.65085 14.5799 4.62815 14.1024ZM11.6267 18.3334V18.3099H12.2705C12.3503 18.3099 12.4193 18.2736 12.4301 18.1938C12.4363 18.1359 12.4193 18.0779 12.383 18.0324C12.3408 18.0009 12.2885 17.986 12.2361 17.9907L10.865 17.9671C10.8188 17.9624 10.7726 17.9755 10.7358 18.0039C10.699 18.0322 10.6745 18.0736 10.6673 18.1194C10.6673 18.2137 10.7308 18.2845 10.8487 18.2917L11.6267 18.3334Z" fill="#343A46"/>
<path d="M17.5041 9.98915C17.5002 9.56551 17.557 9.1435 17.6728 8.73597C17.7811 8.31673 17.9971 7.93305 18.2992 7.62292C18.6014 7.31278 18.9794 7.08694 19.3957 6.96774C20.1564 6.71346 20.9849 6.75424 21.717 7.082C22.0387 7.20989 22.3215 7.41925 22.5377 7.68953C22.7539 7.9598 22.8961 8.28168 22.9503 8.62353C23.313 10.5495 24.3612 11.9841 26.0333 12.9761C26.5865 13.3091 27.1708 13.5873 27.778 13.8067C28.1087 13.925 28.4097 14.1137 28.6602 14.3598C28.9108 14.606 29.1048 14.9036 29.2288 15.2322C29.5249 15.8954 29.5567 16.6465 29.3177 17.3323C29.0185 18.1919 28.3801 18.687 27.5223 18.9228C27.3699 18.9645 27.2122 18.9845 27.0598 19.0226C27.0476 19.0271 27.0345 19.0291 27.0215 19.0284C27.0085 19.0277 26.9957 19.0244 26.984 19.0186C26.9723 19.0129 26.9619 19.0048 26.9534 18.9948C26.9449 18.9849 26.9385 18.9734 26.9347 18.9609C26.7284 18.5776 26.4476 18.2395 26.1087 17.9663C25.7699 17.6932 25.3798 17.4906 24.9615 17.3704C24.5959 17.2432 24.2072 17.1965 23.8219 17.2334C23.4366 17.2703 23.0638 17.3901 22.729 17.5844C22.5476 17.686 22.3663 17.7658 22.1849 17.8619C22.1569 17.878 22.1249 17.8856 22.0926 17.8836C22.0604 17.8817 22.0294 17.8703 22.0036 17.851C20.3252 16.8455 19.024 15.3161 18.3003 13.4984C17.9157 12.5775 17.6641 11.6066 17.5531 10.6148V10.5296C17.5204 10.3555 17.5041 10.1723 17.5041 9.98915ZM26.251 14.3707C26.2447 14.2962 26.2185 14.2247 26.1751 14.1638C26.1317 14.1028 26.0727 14.0547 26.0043 14.0244C25.7903 13.9083 25.5727 13.7977 25.3696 13.6616C24.3322 12.9852 23.4182 12.1926 22.8705 11.0447C22.8149 10.9501 22.7329 10.8739 22.6347 10.8252C22.5789 10.7985 22.516 10.7904 22.4552 10.8021C22.3945 10.8139 22.3392 10.8449 22.2974 10.8905C22.2586 10.9255 22.232 10.9721 22.2215 11.0233C22.2111 11.0746 22.2173 11.1278 22.2393 11.1752C22.2492 11.2172 22.2638 11.258 22.2829 11.2967C22.4642 11.6595 22.6256 12.0222 22.8269 12.3613C23.4635 13.5039 24.4247 14.2873 25.5944 14.8332C25.6684 14.8577 25.747 14.8644 25.824 14.8529C25.901 14.8414 25.9742 14.8119 26.0377 14.7669C26.1013 14.7219 26.1533 14.6626 26.1897 14.5938C26.2261 14.525 26.2459 14.4486 26.2473 14.3707H26.251ZM19.2252 7.62425C19.1719 7.65182 19.1204 7.68272 19.071 7.71675C18.7953 7.94837 18.5825 8.24595 18.4526 8.58182C18.1936 9.27627 18.1162 10.0254 18.2277 10.7581C18.3433 11.7052 18.6109 12.6275 19.0202 13.4893C19.1236 13.7179 19.2361 13.9427 19.3594 14.1604C19.3793 14.1874 19.4045 14.21 19.4335 14.2269C19.4626 14.2437 19.4947 14.2544 19.528 14.2583C19.5546 14.2534 19.5796 14.2421 19.6008 14.2254C19.622 14.2086 19.6387 14.1869 19.6496 14.1622C19.6622 14.104 19.6525 14.0431 19.6224 13.9917C19.2598 13.317 18.9751 12.6033 18.7736 11.8644C18.5314 11.0623 18.4597 10.2185 18.5632 9.38705C18.6153 8.93915 18.7946 8.51556 19.0801 8.16651C19.1508 8.08309 19.2469 8.0178 19.3159 7.93256C19.3336 7.90826 19.3462 7.88065 19.3531 7.85137C19.3599 7.82208 19.3608 7.79173 19.3558 7.76209C19.3394 7.70224 19.2723 7.66778 19.2252 7.62425ZM21.4015 16.4418C21.3742 16.3903 21.3427 16.3412 21.3072 16.2949C21.182 16.1535 21.046 16.0193 20.9245 15.8742C20.7431 15.6656 20.5835 15.4516 20.4149 15.2394C20.3971 15.2091 20.3692 15.1859 20.336 15.174C20.3029 15.162 20.2666 15.1621 20.2335 15.1742C20.2079 15.1877 20.1852 15.2062 20.1668 15.2286C20.1485 15.2511 20.1348 15.2769 20.1265 15.3047C20.1254 15.3613 20.1454 15.4163 20.1827 15.4589C20.4185 15.7472 20.6561 16.032 20.8955 16.3167C20.9601 16.3979 21.033 16.4721 21.1131 16.538C21.1394 16.5558 21.1691 16.5679 21.2003 16.5735C21.2316 16.5792 21.2636 16.5782 21.2945 16.5706C21.3307 16.5561 21.3616 16.4908 21.4051 16.4418H21.4015Z" fill="#343A46"/>
</svg>
