<svg width="30" height="31" viewBox="0 0 30 31" fill="none" xmlns="http://www.w3.org/2000/svg">
<rect y="0.5" width="30" height="30" rx="15" fill="#D19FFF" fill-opacity="0.2"/>
<path d="M14.9028 7.6532C14.7918 7.55451 14.6484 7.5 14.4999 7.5C14.3513 7.5 14.2079 7.55451 14.0969 7.6532C13.5192 8.16515 13.0584 8.79546 12.7459 9.50131C12.4333 10.2072 12.2764 10.972 12.2857 11.7439C12.2866 11.8248 12.3084 11.904 12.3489 11.9741C12.3895 12.0441 12.4474 12.1024 12.517 12.1435C13.1264 12.5039 13.6773 12.9552 14.1505 13.4817C14.1946 13.5306 14.2485 13.5698 14.3087 13.5966C14.3688 13.6234 14.434 13.6372 14.4999 13.6372C14.5657 13.6372 14.6309 13.6234 14.691 13.5966C14.7512 13.5698 14.8051 13.5306 14.8492 13.4817C15.3226 12.9558 15.8734 12.5052 16.4827 12.1454C16.5522 12.1042 16.6099 12.0458 16.6502 11.9758C16.6906 11.9058 16.7122 11.8266 16.713 11.7458C16.7226 10.9738 16.5659 10.2088 16.2535 9.5028C15.9412 8.79679 15.4805 8.16629 14.9028 7.65414M7.93267 17.0542C7.92532 16.9723 7.93426 16.8897 7.95897 16.8112C7.98368 16.7328 8.02367 16.66 8.07664 16.597C8.12962 16.5341 8.19452 16.4823 8.26762 16.4445C8.34071 16.4068 8.42056 16.3839 8.50254 16.3772C9.75457 16.2724 11.0078 16.5646 12.0844 17.2123C13.161 17.8599 14.0063 18.8302 14.5003 19.9854C14.9942 18.8302 15.8392 17.8598 16.9157 17.212C17.9921 16.5641 19.2452 16.2717 20.4972 16.3762C20.8413 16.4044 21.099 16.7072 21.067 17.0533C20.9314 18.5416 20.2444 19.9255 19.1407 20.9333C18.0371 21.941 16.5967 22.4998 15.1022 22.5H14.6649C14.609 22.4995 14.5534 22.492 14.4994 22.4774C14.4451 22.492 14.3892 22.4996 14.3329 22.5H13.8957C12.4013 22.4996 10.9611 21.9407 9.85766 20.9329C8.75425 19.9252 8.06732 18.5415 7.93173 17.0533M14.5003 15.7537C14.0064 14.5983 13.1612 13.6278 12.0846 12.98C11.008 12.3321 9.75468 12.0398 8.50254 12.1445C8.42056 12.1512 8.34071 12.1741 8.26762 12.2119C8.19452 12.2496 8.12962 12.3014 8.07664 12.3644C8.02367 12.4273 7.98368 12.5001 7.95897 12.5786C7.93426 12.657 7.92532 12.7396 7.93267 12.8216C8.0068 13.6466 8.25179 14.4472 8.65206 15.1725C8.69245 15.2455 8.75153 15.3065 8.82325 15.3491C8.89498 15.3918 8.97675 15.4145 9.06019 15.4151C10.0111 15.4235 10.9502 15.6277 11.8187 16.015C12.6872 16.4023 13.4666 16.9645 14.1082 17.6664C14.1574 17.7202 14.2185 17.7618 14.2865 17.7879C14.3546 17.814 14.4278 17.8239 14.5003 17.8169C14.5727 17.8238 14.6457 17.8138 14.7136 17.7877C14.7815 17.7615 14.8424 17.72 14.8915 17.6664C15.5331 16.9645 16.3125 16.4023 17.181 16.015C18.0495 15.6277 18.9886 15.4235 19.9395 15.4151C20.023 15.4145 20.1049 15.3915 20.1766 15.3487C20.2483 15.3059 20.3074 15.2448 20.3476 15.1716C20.7478 14.4466 20.9928 13.6463 21.067 12.8216C21.0744 12.7396 21.0654 12.657 21.0407 12.5786C21.016 12.5001 20.976 12.4273 20.9231 12.3644C20.8701 12.3014 20.8052 12.2496 20.7321 12.2119C20.659 12.1741 20.5791 12.1512 20.4972 12.1445C19.2452 12.04 17.9921 12.3324 16.9157 12.9803C15.8392 13.6281 14.9942 14.5985 14.5003 15.7537Z" fill="#901AFF"/>
</svg>
