<svg width="24" height="24" viewBox="0 0 24 24" fill="none" xmlns="http://www.w3.org/2000/svg">
<g clip-path="url(#clip0_40000012_35588)">
<path d="M17.05 4.20801C17.2932 4.20801 17.5265 4.30462 17.6985 4.47659C17.8704 4.64856 17.967 4.8818 17.967 5.12501V21.625C17.9672 21.7454 17.9436 21.8646 17.8976 21.9759C17.8516 22.0871 17.7842 22.1882 17.6991 22.2734C17.614 22.3585 17.513 22.4261 17.4018 22.4722C17.2906 22.5183 17.1714 22.542 17.051 22.542H2.38404C2.14084 22.542 1.90759 22.4454 1.73562 22.2734C1.56365 22.1015 1.46704 21.8682 1.46704 21.625V5.12501C1.46704 4.8818 1.56365 4.64856 1.73562 4.47659C1.90759 4.30462 2.14084 4.20801 2.38404 4.20801H17.05Z" fill="#FFDDA1"/>
<path d="M17.968 14.036L15.342 15.26L13.384 17.961L16.713 18.198L17.968 17.612V14.036ZM14.75 6.95801C14.75 7.20121 14.6534 7.43445 14.4814 7.60642C14.3095 7.7784 14.0762 7.87501 13.833 7.87501H5.58302C5.33981 7.87501 5.10657 7.7784 4.9346 7.60642C4.76263 7.43445 4.66602 7.20121 4.66602 6.95801V4.20801H14.75V6.95801Z" fill="#FFBC44"/>
<path d="M17.967 18.417V21.625C17.9672 21.7454 17.9436 21.8646 17.8976 21.9759C17.8516 22.0871 17.7842 22.1882 17.6991 22.2734C17.614 22.3585 17.513 22.4261 17.4018 22.4722C17.2906 22.5183 17.1714 22.542 17.051 22.542H2.38404C2.14084 22.542 1.90759 22.4454 1.73562 22.2734C1.56365 22.1015 1.46704 21.8682 1.46704 21.625V5.12501C1.46704 4.8818 1.56365 4.64856 1.73562 4.47659C1.90759 4.30462 2.14084 4.20801 2.38404 4.20801H5.13404M14.3 4.20801H17.05C17.2932 4.20801 17.5265 4.30462 17.6985 4.47659C17.8704 4.64856 17.967 4.8818 17.967 5.12501V8.33301" stroke="#191919" stroke-linecap="round" stroke-linejoin="round"/>
<path d="M11.016 3.29199H13.386C13.6289 3.29199 13.8619 3.3885 14.0337 3.56028C14.2055 3.73207 14.302 3.96505 14.302 4.20799V5.12499C14.3021 5.24545 14.2785 5.36475 14.2325 5.47607C14.1864 5.58738 14.1189 5.68852 14.0337 5.7737C13.9485 5.85888 13.8474 5.92642 13.7361 5.97246C13.6248 6.01849 13.5055 6.04212 13.385 6.04199H6.05201C5.80881 6.04199 5.57556 5.94538 5.40359 5.77341C5.23162 5.60144 5.13501 5.3682 5.13501 5.12499V4.20799C5.13527 3.96496 5.232 3.73198 5.40395 3.56022C5.57589 3.38847 5.80898 3.29199 6.05201 3.29199H8.42601" fill="#E4F1F5"/>
<path d="M11.016 3.29199H13.386C13.6289 3.29199 13.8619 3.3885 14.0337 3.56028C14.2055 3.73207 14.302 3.96505 14.302 4.20799V5.12499C14.3021 5.24545 14.2785 5.36475 14.2325 5.47607C14.1864 5.58738 14.1189 5.68852 14.0337 5.7737C13.9485 5.85888 13.8474 5.92642 13.7361 5.97246C13.6248 6.01849 13.5055 6.04212 13.385 6.04199H6.05201C5.80881 6.04199 5.57556 5.94538 5.40359 5.77341C5.23162 5.60144 5.13501 5.3682 5.13501 5.12499V4.20799C5.13527 3.96496 5.232 3.73198 5.40395 3.56022C5.57589 3.38847 5.80898 3.29199 6.05201 3.29199H8.42601" stroke="#191919" stroke-linecap="round" stroke-linejoin="round"/>
<path d="M9.71704 4.20801C10.0817 4.20801 10.4315 4.06314 10.6893 3.80528C10.9472 3.54742 11.092 3.19768 11.092 2.83301C11.092 2.46834 10.9472 2.1186 10.6893 1.86074C10.4315 1.60287 10.0817 1.45801 9.71704 1.45801C9.35237 1.45801 9.00263 1.60287 8.74477 1.86074C8.48691 2.1186 8.34204 2.46834 8.34204 2.83301C8.34204 3.19768 8.48691 3.54742 8.74477 3.80528C9.00263 4.06314 9.35237 4.20801 9.71704 4.20801Z" fill="#98B7C0" stroke="#191919" stroke-linecap="round" stroke-linejoin="round"/>
<path d="M4.21704 9.70801H15.217M4.21704 13.375H12.894M4.21704 17.042H11.535" stroke="#191919" stroke-linecap="round" stroke-linejoin="round"/>
<path d="M16.594 17.0417L13.385 17.9577L14.302 14.7497L19.785 9.2657C20.0889 8.96177 20.5012 8.79102 20.931 8.79102C21.3608 8.79102 21.7731 8.96177 22.077 9.2657C22.3809 9.56964 22.5517 9.98187 22.5517 10.4117C22.5517 10.8415 22.3809 11.2538 22.077 11.5577L16.594 17.0417Z" fill="#66E1FF" stroke="#191919" stroke-linecap="round" stroke-linejoin="round"/>
</g>
<defs>
<clipPath id="clip0_40000012_35588">
<rect width="24" height="24" fill="white"/>
</clipPath>
</defs>
</svg>
