<svg width="24" height="24" viewBox="0 0 24 24" fill="none" xmlns="http://www.w3.org/2000/svg">
<g clip-path="url(#clip0_40000012_35567)">
<path d="M22.4998 0.499512H13.9998C13.6828 0.4995 13.3689 0.56193 13.076 0.683238C12.7831 0.804545 12.517 0.982354 12.2928 1.20651L0.8538 12.6455C0.741564 12.7576 0.652525 12.8907 0.591775 13.0373C0.531025 13.1838 0.499756 13.3409 0.499756 13.4995C0.499756 13.6581 0.531025 13.8152 0.591775 13.9618C0.652525 14.1083 0.741564 14.2414 0.8538 14.3535L9.6458 23.1455C9.7579 23.2577 9.89102 23.3468 10.0376 23.4075C10.1841 23.4683 10.3412 23.4996 10.4998 23.4996C10.6584 23.4996 10.8155 23.4683 10.962 23.4075C11.1086 23.3468 11.2417 23.2577 11.3538 23.1455L22.7928 11.7065C23.017 11.4824 23.1949 11.2163 23.3162 10.9234C23.4375 10.6305 23.4999 10.3165 23.4998 9.99951V1.49951C23.4998 1.2343 23.3944 0.979941 23.2069 0.792405C23.0194 0.604869 22.765 0.499512 22.4998 0.499512ZM18.9998 6.49951C18.7031 6.49951 18.4131 6.41154 18.1664 6.24672C17.9198 6.08189 17.7275 5.84763 17.614 5.57354C17.5005 5.29945 17.4707 4.99785 17.5286 4.70688C17.5865 4.4159 17.7294 4.14863 17.9391 3.93885C18.1489 3.72907 18.4162 3.58621 18.7072 3.52833C18.9981 3.47046 19.2997 3.50016 19.5738 3.61369C19.8479 3.72722 20.0822 3.91948 20.247 4.16616C20.4118 4.41283 20.4998 4.70284 20.4998 4.99951C20.4998 5.39734 20.3418 5.77887 20.0605 6.06017C19.7792 6.34148 19.3976 6.49951 18.9998 6.49951Z" fill="#D19FFF"/>
<path d="M22.4998 0.499512H13.9998C13.6828 0.4995 13.3689 0.56193 13.076 0.683238C12.7831 0.804545 12.517 0.982354 12.2928 1.20651L0.8538 12.6455C0.741564 12.7576 0.652525 12.8907 0.591775 13.0373C0.531025 13.1838 0.499756 13.3409 0.499756 13.4995C0.499756 13.6581 0.531025 13.8152 0.591775 13.9618C0.652525 14.1083 0.741564 14.2414 0.8538 14.3535L5.2998 18.7995L17.9998 6.10851C17.8457 5.97371 17.7209 5.80868 17.6331 5.62366C17.5454 5.43864 17.4966 5.23758 17.4898 5.03293C17.483 4.82828 17.5183 4.62441 17.5935 4.43397C17.6688 4.24352 17.7823 4.07056 17.9271 3.9258C18.0719 3.78105 18.245 3.66759 18.4354 3.59246C18.6259 3.51732 18.8298 3.48212 19.0345 3.48903C19.2391 3.49594 19.4401 3.54482 19.6251 3.63263C19.8101 3.72044 19.9751 3.84532 20.1098 3.99951L23.2508 0.856512C23.159 0.746053 23.0443 0.656899 22.9146 0.595249C22.785 0.533598 22.6434 0.500929 22.4998 0.499512Z" fill="#FCDFFF"/>
<path d="M14.258 12.5708L12.273 10.5858C12.1691 10.4637 12.0399 10.3656 11.8943 10.2984C11.7488 10.2311 11.5904 10.1963 11.43 10.1963C11.2697 10.1963 11.1112 10.2311 10.9657 10.2984C10.8201 10.3656 10.6909 10.4637 10.587 10.5858C9.66201 11.5098 11.787 15.0458 10.859 15.9698C10.7498 16.0832 10.6188 16.1735 10.4738 16.2351C10.3289 16.2968 10.173 16.3285 10.0155 16.3285C9.85801 16.3285 9.70214 16.2968 9.5572 16.2351C9.41227 16.1735 9.28126 16.0832 9.17201 15.9698L7.18701 13.9848" stroke="#3B015C" stroke-linecap="round" stroke-linejoin="round"/>
<path d="M12.8435 11.1562L13.9045 10.0952" stroke="#3B015C" stroke-linecap="round" stroke-linejoin="round"/>
<path d="M7.53882 16.4604L8.59982 15.3994" stroke="#3B015C" stroke-linecap="round" stroke-linejoin="round"/>
<path d="M22.4998 0.499512H13.9998C13.6828 0.4995 13.3689 0.56193 13.076 0.683238C12.7831 0.804545 12.517 0.982354 12.2928 1.20651L0.8538 12.6455C0.741564 12.7576 0.652525 12.8907 0.591775 13.0373C0.531025 13.1838 0.499756 13.3409 0.499756 13.4995C0.499756 13.6581 0.531025 13.8152 0.591775 13.9618C0.652525 14.1083 0.741564 14.2414 0.8538 14.3535L9.6458 23.1455C9.7579 23.2577 9.89102 23.3468 10.0376 23.4075C10.1841 23.4683 10.3412 23.4996 10.4998 23.4996C10.6584 23.4996 10.8155 23.4683 10.962 23.4075C11.1086 23.3468 11.2417 23.2577 11.3538 23.1455L22.7928 11.7065C23.017 11.4824 23.1949 11.2163 23.3162 10.9234C23.4375 10.6305 23.4999 10.3165 23.4998 9.99951V1.49951C23.4998 1.2343 23.3944 0.979941 23.2069 0.792405C23.0194 0.604869 22.765 0.499512 22.4998 0.499512ZM18.9998 6.49951C18.7031 6.49951 18.4131 6.41154 18.1664 6.24672C17.9198 6.08189 17.7275 5.84763 17.614 5.57354C17.5004 5.29945 17.4707 4.99785 17.5286 4.70688C17.5865 4.4159 17.7294 4.14863 17.9391 3.93885C18.1489 3.72907 18.4162 3.58621 18.7072 3.52833C18.9981 3.47046 19.2997 3.50016 19.5738 3.61369C19.8479 3.72722 20.0822 3.91948 20.247 4.16616C20.4118 4.41283 20.4998 4.70284 20.4998 4.99951C20.4998 5.39734 20.3418 5.77887 20.0605 6.06017C19.7792 6.34148 19.3976 6.49951 18.9998 6.49951Z" stroke="#3B015C" stroke-linecap="round" stroke-linejoin="round"/>
</g>
<defs>
<clipPath id="clip0_40000012_35567">
<rect width="24" height="24" fill="white"/>
</clipPath>
</defs>
</svg>
