<svg width="32" height="32" viewBox="0 0 32 32" fill="none" xmlns="http://www.w3.org/2000/svg">
<path d="M15.9999 2.28564C23.5741 2.28564 29.7142 8.42574 29.7142 15.9999C29.7142 23.5741 23.5741 29.7142 15.9999 29.7142C8.42574 29.7142 2.28564 23.5741 2.28564 15.9999C2.28564 8.42574 8.42574 2.28564 15.9999 2.28564ZM15.9999 23.4285C13.616 23.4285 11.3371 24.0936 9.37503 25.3131C11.2436 26.6451 13.5303 27.4285 15.9999 27.4285C18.4691 27.4285 20.7554 26.6455 22.624 25.3142C20.6622 24.0935 18.3836 23.4285 15.9999 23.4285ZM15.9999 4.57136C9.6881 4.57136 4.57136 9.6881 4.57136 15.9999C4.57136 18.9893 5.71908 21.7106 7.59791 23.7472C10.0406 22.0664 12.9496 21.1428 15.9999 21.1428C19.0505 21.1428 21.9598 22.0666 24.403 23.7455C26.2812 21.7095 27.4285 18.9887 27.4285 15.9999C27.4285 9.6881 22.3118 4.57136 15.9999 4.57136ZM15.9999 8.57136C18.999 8.57136 21.4285 11.0009 21.4285 13.9999C21.4285 16.999 18.999 19.4285 15.9999 19.4285C13.0009 19.4285 10.5714 16.999 10.5714 13.9999C10.5714 11.0009 13.0009 8.57136 15.9999 8.57136ZM15.9999 10.8571C14.2633 10.8571 12.8571 12.2633 12.8571 13.9999C12.8571 15.7366 14.2633 17.1428 15.9999 17.1428C17.7366 17.1428 19.1428 15.7366 19.1428 13.9999C19.1428 12.2633 17.7366 10.8571 15.9999 10.8571Z" fill="#343A46"/>
</svg>
