<svg width="20" height="20" viewBox="0 0 20 20" fill="none" xmlns="http://www.w3.org/2000/svg">
<path d="M18.3334 10.0002V14.1668C18.3334 16.6668 16.6667 18.3335 14.1667 18.3335H5.83341C3.33341 18.3335 1.66675 16.6668 1.66675 14.1668V10.0002C1.66675 7.7335 3.03341 6.15016 5.15841 5.88349C5.37508 5.85016 5.60008 5.8335 5.83341 5.8335H14.1667C14.3834 5.8335 14.5917 5.84182 14.7917 5.87515C16.9417 6.12515 18.3334 7.71683 18.3334 10.0002Z" stroke="#292D32" stroke-width="1.25" stroke-linecap="round" stroke-linejoin="round"/>
<path d="M14.7928 5.87484C14.5928 5.8415 14.3844 5.83318 14.1678 5.83318H5.83442C5.60109 5.83318 5.37609 5.84984 5.15942 5.88318C5.27609 5.64984 5.44276 5.43318 5.64276 5.23318L8.35109 2.5165C9.49276 1.38317 11.3428 1.38317 12.4844 2.5165L13.9428 3.99152C14.4761 4.51652 14.7594 5.18317 14.7928 5.87484Z" stroke="#292D32" stroke-width="1.25" stroke-linecap="round" stroke-linejoin="round"/>
<path d="M18.3334 10.4165H15.8334C14.9167 10.4165 14.1667 11.1665 14.1667 12.0832C14.1667 12.9998 14.9167 13.7498 15.8334 13.7498H18.3334" stroke="#292D32" stroke-width="1.25" stroke-linecap="round" stroke-linejoin="round"/>
</svg>
