<svg width="24" height="25" viewBox="0 0 24 25" fill="none" xmlns="http://www.w3.org/2000/svg">
<path d="M13 9.5H7" stroke="#858990" stroke-width="1.5" stroke-linecap="round" stroke-linejoin="round"/>
<path d="M22 11.4702V13.5302C22 14.0802 21.56 14.5302 21 14.5502H19.0399C17.9599 14.5502 16.97 13.7602 16.88 12.6802C16.82 12.0502 17.0599 11.4602 17.4799 11.0502C17.8499 10.6702 18.36 10.4502 18.92 10.4502H21C21.56 10.4702 22 10.9202 22 11.4702Z" stroke="#858990" stroke-width="1.5" stroke-linecap="round" stroke-linejoin="round"/>
<path d="M17.48 11.05C17.06 11.46 16.82 12.05 16.88 12.68C16.97 13.76 17.96 14.55 19.04 14.55H21V16C21 19 19 21 16 21H7C4 21 2 19 2 16V9C2 6.28 3.64 4.38 6.19 4.06C6.45 4.02 6.72 4 7 4H16C16.26 4 16.51 4.00999 16.75 4.04999C19.33 4.34999 21 6.26 21 9V10.45H18.92C18.36 10.45 17.85 10.67 17.48 11.05Z" stroke="#858990" stroke-width="1.5" stroke-linecap="round" stroke-linejoin="round"/>
</svg>
